<svg width="1920" height="684" viewBox="0 0 1920 684" fill="none" xmlns="http://www.w3.org/2000/svg">
<path d="M-2.61556 671.593L1996.19 677.296L1997.12 350.982L1936.04 208.577C1916.39 162.77 1872.78 131.792 1823.06 128.325L-0.70234 1.13609L-2.61556 671.593Z" fill="#0B0C10" stroke="#261D56"/>
<rect width="315.293" height="159.976" rx="30" transform="matrix(0.796489 0.604653 -0.825532 0.564355 1714.73 401.95)" fill="#2B2E38" fill-opacity="0.22"/>
<rect width="563.989" height="204.71" rx="30" transform="matrix(0.991606 -0.129297 0.197173 0.980369 -31.2827 237.708)" fill="#2B2E38" fill-opacity="0.2"/>
<rect x="-99.7121" y="183.749" width="563.495" height="242.032" rx="9" transform="rotate(-7.88292 -99.7121 183.749)" stroke="#969696" stroke-opacity="0.11" stroke-width="2"/>
<g clip-path="url(#clip0)">
<g clip-path="url(#clip1)">
<circle cx="379.002" cy="339.746" r="5" transform="rotate(0.428321 379.002 339.746)" fill="#A6A8AB" fill-opacity="0.06"/>
<circle cx="398.001" cy="339.888" r="5" transform="rotate(0.428321 398.001 339.888)" fill="#A6A8AB" fill-opacity="0.06"/>
<circle cx="417.001" cy="340.03" r="5" transform="rotate(0.428321 417.001 340.03)" fill="#A6A8AB" fill-opacity="0.06"/>
<circle cx="436" cy="340.172" r="5" transform="rotate(0.428321 436 340.172)" fill="#A6A8AB" fill-opacity="0.06"/>
<circle cx="455" cy="340.315" r="5" transform="rotate(0.428321 455 340.315)" fill="#A6A8AB" fill-opacity="0.06"/>
<circle cx="473.999" cy="340.456" r="5" transform="rotate(0.428321 473.999 340.456)" fill="#A6A8AB" fill-opacity="0.06"/>
<circle cx="492.998" cy="340.598" r="5" transform="rotate(0.428321 492.998 340.598)" fill="#A6A8AB" fill-opacity="0.06"/>
<circle cx="511.998" cy="340.74" r="5" transform="rotate(0.428321 511.998 340.74)" fill="#A6A8AB" fill-opacity="0.06"/>
<circle cx="530.997" cy="340.882" r="5" transform="rotate(0.428321 530.997 340.882)" fill="#A6A8AB" fill-opacity="0.06"/>
<circle cx="549.997" cy="341.025" r="5" transform="rotate(0.428321 549.997 341.025)" fill="#A6A8AB" fill-opacity="0.06"/>
<circle cx="568.996" cy="341.167" r="5" transform="rotate(0.428321 568.996 341.167)" fill="#A6A8AB" fill-opacity="0.06"/>
<circle cx="587.996" cy="341.309" r="5" transform="rotate(0.428321 587.996 341.309)" fill="#A6A8AB" fill-opacity="0.06"/>
<circle cx="606.995" cy="341.451" r="5" transform="rotate(0.428321 606.995 341.451)" fill="#A6A8AB" fill-opacity="0.06"/>
</g>
<g clip-path="url(#clip2)">
<circle cx="378.859" cy="358.746" r="5" transform="rotate(0.428321 378.859 358.746)" fill="#A6A8AB" fill-opacity="0.06"/>
<circle cx="397.859" cy="358.888" r="5" transform="rotate(0.428321 397.859 358.888)" fill="#A6A8AB" fill-opacity="0.06"/>
<circle cx="416.858" cy="359.03" r="5" transform="rotate(0.428321 416.858 359.03)" fill="#A6A8AB" fill-opacity="0.06"/>
<circle cx="435.858" cy="359.172" r="5" transform="rotate(0.428321 435.858 359.172)" fill="#A6A8AB" fill-opacity="0.06"/>
<circle cx="454.858" cy="359.314" r="5" transform="rotate(0.428321 454.858 359.314)" fill="#A6A8AB" fill-opacity="0.06"/>
<circle cx="473.857" cy="359.456" r="5" transform="rotate(0.428321 473.857 359.456)" fill="#A6A8AB" fill-opacity="0.06"/>
<circle cx="492.856" cy="359.598" r="5" transform="rotate(0.428321 492.856 359.598)" fill="#A6A8AB" fill-opacity="0.06"/>
<circle cx="511.856" cy="359.74" r="5" transform="rotate(0.428321 511.856 359.74)" fill="#A6A8AB" fill-opacity="0.06"/>
<circle cx="530.855" cy="359.882" r="5" transform="rotate(0.428321 530.855 359.882)" fill="#A6A8AB" fill-opacity="0.06"/>
<circle cx="549.855" cy="360.024" r="5" transform="rotate(0.428321 549.855 360.024)" fill="#A6A8AB" fill-opacity="0.06"/>
<circle cx="568.854" cy="360.166" r="5" transform="rotate(0.428321 568.854 360.166)" fill="#A6A8AB" fill-opacity="0.06"/>
<circle cx="587.854" cy="360.308" r="5" transform="rotate(0.428321 587.854 360.308)" fill="#A6A8AB" fill-opacity="0.06"/>
<circle cx="606.853" cy="360.45" r="5" transform="rotate(0.428321 606.853 360.45)" fill="#A6A8AB" fill-opacity="0.06"/>
</g>
<g clip-path="url(#clip3)">
<circle cx="378.717" cy="377.745" r="5" transform="rotate(0.428321 378.717 377.745)" fill="#A6A8AB" fill-opacity="0.06"/>
<circle cx="397.717" cy="377.887" r="5" transform="rotate(0.428321 397.717 377.887)" fill="#A6A8AB" fill-opacity="0.06"/>
<circle cx="416.716" cy="378.029" r="5" transform="rotate(0.428321 416.716 378.029)" fill="#A6A8AB" fill-opacity="0.06"/>
<circle cx="435.716" cy="378.172" r="5" transform="rotate(0.428321 435.716 378.172)" fill="#A6A8AB" fill-opacity="0.06"/>
<circle cx="454.715" cy="378.314" r="5" transform="rotate(0.428321 454.715 378.314)" fill="#A6A8AB" fill-opacity="0.06"/>
<circle cx="473.715" cy="378.455" r="5" transform="rotate(0.428321 473.715 378.455)" fill="#A6A8AB" fill-opacity="0.06"/>
<circle cx="492.714" cy="378.597" r="5" transform="rotate(0.428321 492.714 378.597)" fill="#A6A8AB" fill-opacity="0.06"/>
<circle cx="511.713" cy="378.739" r="5" transform="rotate(0.428321 511.713 378.739)" fill="#A6A8AB" fill-opacity="0.06"/>
<circle cx="530.713" cy="378.881" r="5" transform="rotate(0.428321 530.713 378.881)" fill="#A6A8AB" fill-opacity="0.06"/>
<circle cx="549.712" cy="379.024" r="5" transform="rotate(0.428321 549.712 379.024)" fill="#A6A8AB" fill-opacity="0.06"/>
<circle cx="568.712" cy="379.166" r="5" transform="rotate(0.428321 568.712 379.166)" fill="#A6A8AB" fill-opacity="0.06"/>
<circle cx="587.711" cy="379.308" r="5" transform="rotate(0.428321 587.711 379.308)" fill="#A6A8AB" fill-opacity="0.06"/>
<circle cx="606.711" cy="379.45" r="5" transform="rotate(0.428321 606.711 379.45)" fill="#A6A8AB" fill-opacity="0.06"/>
</g>
<g clip-path="url(#clip4)">
<circle cx="378.575" cy="396.745" r="5" transform="rotate(0.428321 378.575 396.745)" fill="#A6A8AB" fill-opacity="0.06"/>
<circle cx="397.575" cy="396.887" r="5" transform="rotate(0.428321 397.575 396.887)" fill="#A6A8AB" fill-opacity="0.06"/>
<circle cx="416.574" cy="397.029" r="5" transform="rotate(0.428321 416.574 397.029)" fill="#A6A8AB" fill-opacity="0.06"/>
<circle cx="435.574" cy="397.171" r="5" transform="rotate(0.428321 435.574 397.171)" fill="#A6A8AB" fill-opacity="0.06"/>
<circle cx="454.573" cy="397.313" r="5" transform="rotate(0.428321 454.573 397.313)" fill="#A6A8AB" fill-opacity="0.06"/>
<circle cx="473.573" cy="397.455" r="5" transform="rotate(0.428321 473.573 397.455)" fill="#A6A8AB" fill-opacity="0.06"/>
<circle cx="492.572" cy="397.597" r="5" transform="rotate(0.428321 492.572 397.597)" fill="#A6A8AB" fill-opacity="0.06"/>
<circle cx="511.571" cy="397.739" r="5" transform="rotate(0.428321 511.571 397.739)" fill="#A6A8AB" fill-opacity="0.06"/>
<circle cx="530.571" cy="397.881" r="5" transform="rotate(0.428321 530.571 397.881)" fill="#A6A8AB" fill-opacity="0.06"/>
<circle cx="549.57" cy="398.023" r="5" transform="rotate(0.428321 549.57 398.023)" fill="#A6A8AB" fill-opacity="0.06"/>
<circle cx="568.57" cy="398.165" r="5" transform="rotate(0.428321 568.57 398.165)" fill="#A6A8AB" fill-opacity="0.06"/>
<circle cx="587.569" cy="398.307" r="5" transform="rotate(0.428321 587.569 398.307)" fill="#A6A8AB" fill-opacity="0.06"/>
<circle cx="606.569" cy="398.449" r="5" transform="rotate(0.428321 606.569 398.449)" fill="#A6A8AB" fill-opacity="0.06"/>
</g>
<g clip-path="url(#clip5)">
<circle cx="378.433" cy="415.744" r="5" transform="rotate(0.428321 378.433 415.744)" fill="#A6A8AB" fill-opacity="0.06"/>
<circle cx="397.433" cy="415.886" r="5" transform="rotate(0.428321 397.433 415.886)" fill="#A6A8AB" fill-opacity="0.06"/>
<circle cx="416.432" cy="416.028" r="5" transform="rotate(0.428321 416.432 416.028)" fill="#A6A8AB" fill-opacity="0.06"/>
<circle cx="435.432" cy="416.171" r="5" transform="rotate(0.428321 435.432 416.171)" fill="#A6A8AB" fill-opacity="0.06"/>
<circle cx="454.431" cy="416.313" r="5" transform="rotate(0.428321 454.431 416.313)" fill="#A6A8AB" fill-opacity="0.06"/>
<circle cx="473.431" cy="416.454" r="5" transform="rotate(0.428321 473.431 416.454)" fill="#A6A8AB" fill-opacity="0.06"/>
<circle cx="492.43" cy="416.596" r="5" transform="rotate(0.428321 492.43 416.596)" fill="#A6A8AB" fill-opacity="0.06"/>
<circle cx="511.429" cy="416.738" r="5" transform="rotate(0.428321 511.429 416.738)" fill="#A6A8AB" fill-opacity="0.06"/>
<circle cx="530.429" cy="416.88" r="5" transform="rotate(0.428321 530.429 416.88)" fill="#A6A8AB" fill-opacity="0.06"/>
<circle cx="549.428" cy="417.023" r="5" transform="rotate(0.428321 549.428 417.023)" fill="#A6A8AB" fill-opacity="0.06"/>
<circle cx="568.428" cy="417.165" r="5" transform="rotate(0.428321 568.428 417.165)" fill="#A6A8AB" fill-opacity="0.06"/>
<circle cx="587.427" cy="417.307" r="5" transform="rotate(0.428321 587.427 417.307)" fill="#A6A8AB" fill-opacity="0.06"/>
<circle cx="606.427" cy="417.449" r="5" transform="rotate(0.428321 606.427 417.449)" fill="#A6A8AB" fill-opacity="0.06"/>
</g>
<g clip-path="url(#clip6)">
<circle cx="378.292" cy="434.744" r="5" transform="rotate(0.428321 378.292 434.744)" fill="#A6A8AB" fill-opacity="0.06"/>
<circle cx="397.291" cy="434.886" r="5" transform="rotate(0.428321 397.291 434.886)" fill="#A6A8AB" fill-opacity="0.06"/>
<circle cx="416.291" cy="435.028" r="5" transform="rotate(0.428321 416.291 435.028)" fill="#A6A8AB" fill-opacity="0.06"/>
<circle cx="435.29" cy="435.17" r="5" transform="rotate(0.428321 435.29 435.17)" fill="#A6A8AB" fill-opacity="0.06"/>
<circle cx="454.29" cy="435.312" r="5" transform="rotate(0.428321 454.29 435.312)" fill="#A6A8AB" fill-opacity="0.06"/>
<circle cx="473.289" cy="435.454" r="5" transform="rotate(0.428321 473.289 435.454)" fill="#A6A8AB" fill-opacity="0.06"/>
<circle cx="492.288" cy="435.596" r="5" transform="rotate(0.428321 492.288 435.596)" fill="#A6A8AB" fill-opacity="0.06"/>
<circle cx="511.288" cy="435.738" r="5" transform="rotate(0.428321 511.288 435.738)" fill="#A6A8AB" fill-opacity="0.06"/>
<circle cx="530.287" cy="435.88" r="5" transform="rotate(0.428321 530.287 435.88)" fill="#A6A8AB" fill-opacity="0.06"/>
<circle cx="549.287" cy="436.022" r="5" transform="rotate(0.428321 549.287 436.022)" fill="#A6A8AB" fill-opacity="0.06"/>
<circle cx="568.286" cy="436.164" r="5" transform="rotate(0.428321 568.286 436.164)" fill="#A6A8AB" fill-opacity="0.06"/>
<circle cx="587.286" cy="436.306" r="5" transform="rotate(0.428321 587.286 436.306)" fill="#A6A8AB" fill-opacity="0.06"/>
<circle cx="606.285" cy="436.448" r="5" transform="rotate(0.428321 606.285 436.448)" fill="#A6A8AB" fill-opacity="0.06"/>
</g>
<g clip-path="url(#clip7)">
<circle cx="378.15" cy="453.743" r="5" transform="rotate(0.428321 378.15 453.743)" fill="#A6A8AB" fill-opacity="0.06"/>
<circle cx="397.149" cy="453.885" r="5" transform="rotate(0.428321 397.149 453.885)" fill="#A6A8AB" fill-opacity="0.06"/>
<circle cx="416.149" cy="454.027" r="5" transform="rotate(0.428321 416.149 454.027)" fill="#A6A8AB" fill-opacity="0.06"/>
<circle cx="435.148" cy="454.169" r="5" transform="rotate(0.428321 435.148 454.169)" fill="#A6A8AB" fill-opacity="0.06"/>
<circle cx="454.148" cy="454.311" r="5" transform="rotate(0.428321 454.148 454.311)" fill="#A6A8AB" fill-opacity="0.06"/>
<circle cx="473.147" cy="454.453" r="5" transform="rotate(0.428321 473.147 454.453)" fill="#A6A8AB" fill-opacity="0.06"/>
<circle cx="492.146" cy="454.595" r="5" transform="rotate(0.428321 492.146 454.595)" fill="#A6A8AB" fill-opacity="0.06"/>
<circle cx="511.146" cy="454.737" r="5" transform="rotate(0.428321 511.146 454.737)" fill="#A6A8AB" fill-opacity="0.06"/>
<circle cx="530.145" cy="454.879" r="5" transform="rotate(0.428321 530.145 454.879)" fill="#A6A8AB" fill-opacity="0.06"/>
<circle cx="549.145" cy="455.021" r="5" transform="rotate(0.428321 549.145 455.021)" fill="#A6A8AB" fill-opacity="0.06"/>
<circle cx="568.144" cy="455.163" r="5" transform="rotate(0.428321 568.144 455.163)" fill="#A6A8AB" fill-opacity="0.06"/>
<circle cx="587.144" cy="455.305" r="5" transform="rotate(0.428321 587.144 455.305)" fill="#A6A8AB" fill-opacity="0.06"/>
<circle cx="606.143" cy="455.447" r="5" transform="rotate(0.428321 606.143 455.447)" fill="#A6A8AB" fill-opacity="0.06"/>
</g>
<g clip-path="url(#clip8)">
<circle cx="378.007" cy="472.742" r="5" transform="rotate(0.428321 378.007 472.742)" fill="#A6A8AB" fill-opacity="0.06"/>
<circle cx="397.007" cy="472.884" r="5" transform="rotate(0.428321 397.007 472.884)" fill="#A6A8AB" fill-opacity="0.06"/>
<circle cx="416.006" cy="473.026" r="5" transform="rotate(0.428321 416.006 473.026)" fill="#A6A8AB" fill-opacity="0.06"/>
<circle cx="435.006" cy="473.169" r="5" transform="rotate(0.428321 435.006 473.169)" fill="#A6A8AB" fill-opacity="0.06"/>
<circle cx="454.005" cy="473.311" r="5" transform="rotate(0.428321 454.005 473.311)" fill="#A6A8AB" fill-opacity="0.06"/>
<circle cx="473.005" cy="473.452" r="5" transform="rotate(0.428321 473.005 473.452)" fill="#A6A8AB" fill-opacity="0.06"/>
<circle cx="492.004" cy="473.594" r="5" transform="rotate(0.428321 492.004 473.594)" fill="#A6A8AB" fill-opacity="0.06"/>
<circle cx="511.004" cy="473.736" r="5" transform="rotate(0.428321 511.004 473.736)" fill="#A6A8AB" fill-opacity="0.06"/>
<circle cx="530.003" cy="473.879" r="5" transform="rotate(0.428321 530.003 473.879)" fill="#A6A8AB" fill-opacity="0.06"/>
<circle cx="549.003" cy="474.021" r="5" transform="rotate(0.428321 549.003 474.021)" fill="#A6A8AB" fill-opacity="0.06"/>
<circle cx="568.002" cy="474.163" r="5" transform="rotate(0.428321 568.002 474.163)" fill="#A6A8AB" fill-opacity="0.06"/>
<circle cx="587.002" cy="474.305" r="5" transform="rotate(0.428321 587.002 474.305)" fill="#A6A8AB" fill-opacity="0.06"/>
<circle cx="606.001" cy="474.447" r="5" transform="rotate(0.428321 606.001 474.447)" fill="#A6A8AB" fill-opacity="0.06"/>
</g>
<g clip-path="url(#clip9)">
<circle cx="377.865" cy="491.742" r="5" transform="rotate(0.428321 377.865 491.742)" fill="#A6A8AB" fill-opacity="0.06"/>
<circle cx="396.865" cy="491.884" r="5" transform="rotate(0.428321 396.865 491.884)" fill="#A6A8AB" fill-opacity="0.06"/>
<circle cx="415.864" cy="492.026" r="5" transform="rotate(0.428321 415.864 492.026)" fill="#A6A8AB" fill-opacity="0.06"/>
<circle cx="434.864" cy="492.168" r="5" transform="rotate(0.428321 434.864 492.168)" fill="#A6A8AB" fill-opacity="0.06"/>
<circle cx="453.863" cy="492.31" r="5" transform="rotate(0.428321 453.863 492.31)" fill="#A6A8AB" fill-opacity="0.06"/>
<circle cx="472.863" cy="492.452" r="5" transform="rotate(0.428321 472.863 492.452)" fill="#A6A8AB" fill-opacity="0.06"/>
<circle cx="491.862" cy="492.594" r="5" transform="rotate(0.428321 491.862 492.594)" fill="#A6A8AB" fill-opacity="0.06"/>
<circle cx="510.861" cy="492.736" r="5" transform="rotate(0.428321 510.861 492.736)" fill="#A6A8AB" fill-opacity="0.06"/>
<circle cx="529.861" cy="492.878" r="5" transform="rotate(0.428321 529.861 492.878)" fill="#A6A8AB" fill-opacity="0.06"/>
<circle cx="548.86" cy="493.02" r="5" transform="rotate(0.428321 548.86 493.02)" fill="#A6A8AB" fill-opacity="0.06"/>
<circle cx="567.86" cy="493.162" r="5" transform="rotate(0.428321 567.86 493.162)" fill="#A6A8AB" fill-opacity="0.06"/>
<circle cx="586.859" cy="493.304" r="5" transform="rotate(0.428321 586.859 493.304)" fill="#A6A8AB" fill-opacity="0.06"/>
<circle cx="605.859" cy="493.446" r="5" transform="rotate(0.428321 605.859 493.446)" fill="#A6A8AB" fill-opacity="0.06"/>
</g>
<g clip-path="url(#clip10)">
<circle cx="377.723" cy="510.741" r="5" transform="rotate(0.428321 377.723 510.741)" fill="#A6A8AB" fill-opacity="0.06"/>
<circle cx="396.723" cy="510.883" r="5" transform="rotate(0.428321 396.723 510.883)" fill="#A6A8AB" fill-opacity="0.06"/>
<circle cx="415.722" cy="511.026" r="5" transform="rotate(0.428321 415.722 511.026)" fill="#A6A8AB" fill-opacity="0.06"/>
<circle cx="434.722" cy="511.168" r="5" transform="rotate(0.428321 434.722 511.168)" fill="#A6A8AB" fill-opacity="0.06"/>
<circle cx="453.721" cy="511.31" r="5" transform="rotate(0.428321 453.721 511.31)" fill="#A6A8AB" fill-opacity="0.06"/>
<circle cx="472.721" cy="511.451" r="5" transform="rotate(0.428321 472.721 511.451)" fill="#A6A8AB" fill-opacity="0.06"/>
<circle cx="491.72" cy="511.593" r="5" transform="rotate(0.428321 491.72 511.593)" fill="#A6A8AB" fill-opacity="0.06"/>
<circle cx="510.719" cy="511.735" r="5" transform="rotate(0.428321 510.719 511.735)" fill="#A6A8AB" fill-opacity="0.06"/>
<circle cx="529.719" cy="511.878" r="5" transform="rotate(0.428321 529.719 511.878)" fill="#A6A8AB" fill-opacity="0.06"/>
<circle cx="548.718" cy="512.02" r="5" transform="rotate(0.428321 548.718 512.02)" fill="#A6A8AB" fill-opacity="0.06"/>
<circle cx="567.718" cy="512.162" r="5" transform="rotate(0.428321 567.718 512.162)" fill="#A6A8AB" fill-opacity="0.06"/>
<circle cx="586.717" cy="512.304" r="5" transform="rotate(0.428321 586.717 512.304)" fill="#A6A8AB" fill-opacity="0.06"/>
<circle cx="605.717" cy="512.446" r="5" transform="rotate(0.428321 605.717 512.446)" fill="#A6A8AB" fill-opacity="0.06"/>
</g>
<g clip-path="url(#clip11)">
<circle cx="377.581" cy="529.741" r="5" transform="rotate(0.428321 377.581 529.741)" fill="#A6A8AB" fill-opacity="0.06"/>
<circle cx="396.581" cy="529.883" r="5" transform="rotate(0.428321 396.581 529.883)" fill="#A6A8AB" fill-opacity="0.06"/>
<circle cx="415.58" cy="530.025" r="5" transform="rotate(0.428321 415.58 530.025)" fill="#A6A8AB" fill-opacity="0.06"/>
<circle cx="434.58" cy="530.167" r="5" transform="rotate(0.428321 434.58 530.167)" fill="#A6A8AB" fill-opacity="0.06"/>
<circle cx="453.579" cy="530.309" r="5" transform="rotate(0.428321 453.579 530.309)" fill="#A6A8AB" fill-opacity="0.06"/>
<circle cx="472.579" cy="530.451" r="5" transform="rotate(0.428321 472.579 530.451)" fill="#A6A8AB" fill-opacity="0.06"/>
<circle cx="491.578" cy="530.593" r="5" transform="rotate(0.428321 491.578 530.593)" fill="#A6A8AB" fill-opacity="0.06"/>
<circle cx="510.577" cy="530.735" r="5" transform="rotate(0.428321 510.577 530.735)" fill="#A6A8AB" fill-opacity="0.06"/>
<circle cx="529.577" cy="530.877" r="5" transform="rotate(0.428321 529.577 530.877)" fill="#A6A8AB" fill-opacity="0.06"/>
<circle cx="548.576" cy="531.019" r="5" transform="rotate(0.428321 548.576 531.019)" fill="#A6A8AB" fill-opacity="0.06"/>
<circle cx="567.576" cy="531.161" r="5" transform="rotate(0.428321 567.576 531.161)" fill="#A6A8AB" fill-opacity="0.06"/>
<circle cx="586.575" cy="531.303" r="5" transform="rotate(0.428321 586.575 531.303)" fill="#A6A8AB" fill-opacity="0.06"/>
<circle cx="605.575" cy="531.445" r="5" transform="rotate(0.428321 605.575 531.445)" fill="#A6A8AB" fill-opacity="0.06"/>
</g>
</g>
<g clip-path="url(#clip12)">
<g clip-path="url(#clip13)">
<circle cx="1424.46" cy="267.498" r="5" transform="rotate(0.428321 1424.46 267.498)" fill="#A6A8AB" fill-opacity="0.07"/>
<circle cx="1443.45" cy="267.64" r="5" transform="rotate(0.428321 1443.45 267.64)" fill="#A6A8AB" fill-opacity="0.07"/>
<circle cx="1462.45" cy="267.782" r="5" transform="rotate(0.428321 1462.45 267.782)" fill="#A6A8AB" fill-opacity="0.07"/>
<circle cx="1481.45" cy="267.924" r="5" transform="rotate(0.428321 1481.45 267.924)" fill="#A6A8AB" fill-opacity="0.07"/>
<circle cx="1500.45" cy="268.066" r="5" transform="rotate(0.428321 1500.45 268.066)" fill="#A6A8AB" fill-opacity="0.07"/>
<circle cx="1519.45" cy="268.208" r="5" transform="rotate(0.428321 1519.45 268.208)" fill="#A6A8AB" fill-opacity="0.07"/>
<circle cx="1538.45" cy="268.35" r="5" transform="rotate(0.428321 1538.45 268.35)" fill="#A6A8AB" fill-opacity="0.07"/>
<circle cx="1557.45" cy="268.492" r="5" transform="rotate(0.428321 1557.45 268.492)" fill="#A6A8AB" fill-opacity="0.07"/>
<circle cx="1576.45" cy="268.634" r="5" transform="rotate(0.428321 1576.45 268.634)" fill="#A6A8AB" fill-opacity="0.07"/>
<circle cx="1595.45" cy="268.776" r="5" transform="rotate(0.428321 1595.45 268.776)" fill="#A6A8AB" fill-opacity="0.07"/>
<circle cx="1614.45" cy="268.918" r="5" transform="rotate(0.428321 1614.45 268.918)" fill="#A6A8AB" fill-opacity="0.07"/>
<circle cx="1633.45" cy="269.06" r="5" transform="rotate(0.428321 1633.45 269.06)" fill="#A6A8AB" fill-opacity="0.07"/>
<circle cx="1652.45" cy="269.202" r="5" transform="rotate(0.428321 1652.45 269.202)" fill="#A6A8AB" fill-opacity="0.07"/>
<circle cx="1671.45" cy="269.344" r="5" transform="rotate(0.428321 1671.45 269.344)" fill="#A6A8AB" fill-opacity="0.07"/>
<circle cx="1690.45" cy="269.486" r="5" transform="rotate(0.428321 1690.45 269.486)" fill="#A6A8AB" fill-opacity="0.07"/>
<circle cx="1709.45" cy="269.628" r="5" transform="rotate(0.428321 1709.45 269.628)" fill="#A6A8AB" fill-opacity="0.07"/>
</g>
<g clip-path="url(#clip14)">
<circle cx="1424.31" cy="286.497" r="5" transform="rotate(0.428321 1424.31 286.497)" fill="#A6A8AB" fill-opacity="0.07"/>
<circle cx="1443.31" cy="286.639" r="5" transform="rotate(0.428321 1443.31 286.639)" fill="#A6A8AB" fill-opacity="0.07"/>
<circle cx="1462.31" cy="286.781" r="5" transform="rotate(0.428321 1462.31 286.781)" fill="#A6A8AB" fill-opacity="0.07"/>
<circle cx="1481.31" cy="286.923" r="5" transform="rotate(0.428321 1481.31 286.923)" fill="#A6A8AB" fill-opacity="0.07"/>
<circle cx="1500.31" cy="287.066" r="5" transform="rotate(0.428321 1500.31 287.066)" fill="#A6A8AB" fill-opacity="0.07"/>
<circle cx="1519.31" cy="287.207" r="5" transform="rotate(0.428321 1519.31 287.207)" fill="#A6A8AB" fill-opacity="0.07"/>
<circle cx="1538.31" cy="287.349" r="5" transform="rotate(0.428321 1538.31 287.349)" fill="#A6A8AB" fill-opacity="0.07"/>
<circle cx="1557.31" cy="287.491" r="5" transform="rotate(0.428321 1557.31 287.491)" fill="#A6A8AB" fill-opacity="0.07"/>
<circle cx="1576.31" cy="287.633" r="5" transform="rotate(0.428321 1576.31 287.633)" fill="#A6A8AB" fill-opacity="0.07"/>
<circle cx="1595.31" cy="287.776" r="5" transform="rotate(0.428321 1595.31 287.776)" fill="#A6A8AB" fill-opacity="0.07"/>
<circle cx="1614.31" cy="287.918" r="5" transform="rotate(0.428321 1614.31 287.918)" fill="#A6A8AB" fill-opacity="0.07"/>
<circle cx="1633.31" cy="288.06" r="5" transform="rotate(0.428321 1633.31 288.06)" fill="#A6A8AB" fill-opacity="0.07"/>
<circle cx="1652.31" cy="288.202" r="5" transform="rotate(0.428321 1652.31 288.202)" fill="#A6A8AB" fill-opacity="0.07"/>
<circle cx="1671.31" cy="288.344" r="5" transform="rotate(0.428321 1671.31 288.344)" fill="#A6A8AB" fill-opacity="0.07"/>
<circle cx="1690.31" cy="288.485" r="5" transform="rotate(0.428321 1690.31 288.485)" fill="#A6A8AB" fill-opacity="0.07"/>
<circle cx="1709.31" cy="288.628" r="5" transform="rotate(0.428321 1709.31 288.628)" fill="#A6A8AB" fill-opacity="0.07"/>
</g>
<g clip-path="url(#clip15)">
<circle cx="1424.17" cy="305.497" r="5" transform="rotate(0.428321 1424.17 305.497)" fill="#A6A8AB" fill-opacity="0.07"/>
<circle cx="1443.17" cy="305.639" r="5" transform="rotate(0.428321 1443.17 305.639)" fill="#A6A8AB" fill-opacity="0.07"/>
<circle cx="1462.17" cy="305.781" r="5" transform="rotate(0.428321 1462.17 305.781)" fill="#A6A8AB" fill-opacity="0.07"/>
<circle cx="1481.17" cy="305.923" r="5" transform="rotate(0.428321 1481.17 305.923)" fill="#A6A8AB" fill-opacity="0.07"/>
<circle cx="1500.17" cy="306.065" r="5" transform="rotate(0.428321 1500.17 306.065)" fill="#A6A8AB" fill-opacity="0.07"/>
<circle cx="1519.17" cy="306.207" r="5" transform="rotate(0.428321 1519.17 306.207)" fill="#A6A8AB" fill-opacity="0.07"/>
<circle cx="1538.17" cy="306.349" r="5" transform="rotate(0.428321 1538.17 306.349)" fill="#A6A8AB" fill-opacity="0.07"/>
<circle cx="1557.17" cy="306.491" r="5" transform="rotate(0.428321 1557.17 306.491)" fill="#A6A8AB" fill-opacity="0.07"/>
<circle cx="1576.17" cy="306.633" r="5" transform="rotate(0.428321 1576.17 306.633)" fill="#A6A8AB" fill-opacity="0.07"/>
<circle cx="1595.17" cy="306.775" r="5" transform="rotate(0.428321 1595.17 306.775)" fill="#A6A8AB" fill-opacity="0.07"/>
<circle cx="1614.17" cy="306.917" r="5" transform="rotate(0.428321 1614.17 306.917)" fill="#A6A8AB" fill-opacity="0.07"/>
<circle cx="1633.17" cy="307.059" r="5" transform="rotate(0.428321 1633.17 307.059)" fill="#A6A8AB" fill-opacity="0.07"/>
<circle cx="1652.16" cy="307.201" r="5" transform="rotate(0.428321 1652.16 307.201)" fill="#A6A8AB" fill-opacity="0.07"/>
<circle cx="1671.16" cy="307.343" r="5" transform="rotate(0.428321 1671.16 307.343)" fill="#A6A8AB" fill-opacity="0.07"/>
<circle cx="1690.16" cy="307.485" r="5" transform="rotate(0.428321 1690.16 307.485)" fill="#A6A8AB" fill-opacity="0.07"/>
<circle cx="1709.16" cy="307.627" r="5" transform="rotate(0.428321 1709.16 307.627)" fill="#A6A8AB" fill-opacity="0.07"/>
</g>
<g clip-path="url(#clip16)">
<circle cx="1424.03" cy="324.496" r="5" transform="rotate(0.428321 1424.03 324.496)" fill="#A6A8AB" fill-opacity="0.07"/>
<circle cx="1443.03" cy="324.638" r="5" transform="rotate(0.428321 1443.03 324.638)" fill="#A6A8AB" fill-opacity="0.07"/>
<circle cx="1462.03" cy="324.78" r="5" transform="rotate(0.428321 1462.03 324.78)" fill="#A6A8AB" fill-opacity="0.07"/>
<circle cx="1481.03" cy="324.922" r="5" transform="rotate(0.428321 1481.03 324.922)" fill="#A6A8AB" fill-opacity="0.07"/>
<circle cx="1500.03" cy="325.065" r="5" transform="rotate(0.428321 1500.03 325.065)" fill="#A6A8AB" fill-opacity="0.07"/>
<circle cx="1519.03" cy="325.206" r="5" transform="rotate(0.428321 1519.03 325.206)" fill="#A6A8AB" fill-opacity="0.07"/>
<circle cx="1538.03" cy="325.348" r="5" transform="rotate(0.428321 1538.03 325.348)" fill="#A6A8AB" fill-opacity="0.07"/>
<circle cx="1557.03" cy="325.49" r="5" transform="rotate(0.428321 1557.03 325.49)" fill="#A6A8AB" fill-opacity="0.07"/>
<circle cx="1576.03" cy="325.632" r="5" transform="rotate(0.428321 1576.03 325.632)" fill="#A6A8AB" fill-opacity="0.07"/>
<circle cx="1595.02" cy="325.775" r="5" transform="rotate(0.428321 1595.02 325.775)" fill="#A6A8AB" fill-opacity="0.07"/>
<circle cx="1614.02" cy="325.917" r="5" transform="rotate(0.428321 1614.02 325.917)" fill="#A6A8AB" fill-opacity="0.07"/>
<circle cx="1633.02" cy="326.059" r="5" transform="rotate(0.428321 1633.02 326.059)" fill="#A6A8AB" fill-opacity="0.07"/>
<circle cx="1652.02" cy="326.201" r="5" transform="rotate(0.428321 1652.02 326.201)" fill="#A6A8AB" fill-opacity="0.07"/>
<circle cx="1671.02" cy="326.343" r="5" transform="rotate(0.428321 1671.02 326.343)" fill="#A6A8AB" fill-opacity="0.07"/>
<circle cx="1690.02" cy="326.484" r="5" transform="rotate(0.428321 1690.02 326.484)" fill="#A6A8AB" fill-opacity="0.07"/>
<circle cx="1709.02" cy="326.627" r="5" transform="rotate(0.428321 1709.02 326.627)" fill="#A6A8AB" fill-opacity="0.07"/>
</g>
<g clip-path="url(#clip17)">
<circle cx="1423.89" cy="343.496" r="5" transform="rotate(0.428321 1423.89 343.496)" fill="#A6A8AB" fill-opacity="0.07"/>
<circle cx="1442.89" cy="343.638" r="5" transform="rotate(0.428321 1442.89 343.638)" fill="#A6A8AB" fill-opacity="0.07"/>
<circle cx="1461.89" cy="343.78" r="5" transform="rotate(0.428321 1461.89 343.78)" fill="#A6A8AB" fill-opacity="0.07"/>
<circle cx="1480.89" cy="343.922" r="5" transform="rotate(0.428321 1480.89 343.922)" fill="#A6A8AB" fill-opacity="0.07"/>
<circle cx="1499.89" cy="344.064" r="5" transform="rotate(0.428321 1499.89 344.064)" fill="#A6A8AB" fill-opacity="0.07"/>
<circle cx="1518.88" cy="344.206" r="5" transform="rotate(0.428321 1518.88 344.206)" fill="#A6A8AB" fill-opacity="0.07"/>
<circle cx="1537.88" cy="344.348" r="5" transform="rotate(0.428321 1537.88 344.348)" fill="#A6A8AB" fill-opacity="0.07"/>
<circle cx="1556.88" cy="344.49" r="5" transform="rotate(0.428321 1556.88 344.49)" fill="#A6A8AB" fill-opacity="0.07"/>
<circle cx="1575.88" cy="344.632" r="5" transform="rotate(0.428321 1575.88 344.632)" fill="#A6A8AB" fill-opacity="0.07"/>
<circle cx="1594.88" cy="344.774" r="5" transform="rotate(0.428321 1594.88 344.774)" fill="#A6A8AB" fill-opacity="0.07"/>
<circle cx="1613.88" cy="344.916" r="5" transform="rotate(0.428321 1613.88 344.916)" fill="#A6A8AB" fill-opacity="0.07"/>
<circle cx="1632.88" cy="345.058" r="5" transform="rotate(0.428321 1632.88 345.058)" fill="#A6A8AB" fill-opacity="0.07"/>
<circle cx="1651.88" cy="345.2" r="5" transform="rotate(0.428321 1651.88 345.2)" fill="#A6A8AB" fill-opacity="0.07"/>
<circle cx="1670.88" cy="345.342" r="5" transform="rotate(0.428321 1670.88 345.342)" fill="#A6A8AB" fill-opacity="0.07"/>
<circle cx="1689.88" cy="345.484" r="5" transform="rotate(0.428321 1689.88 345.484)" fill="#A6A8AB" fill-opacity="0.07"/>
<circle cx="1708.88" cy="345.626" r="5" transform="rotate(0.428321 1708.88 345.626)" fill="#A6A8AB" fill-opacity="0.07"/>
</g>
<g clip-path="url(#clip18)">
<circle cx="1423.75" cy="362.495" r="5" transform="rotate(0.428321 1423.75 362.495)" fill="#A6A8AB" fill-opacity="0.07"/>
<circle cx="1442.74" cy="362.637" r="5" transform="rotate(0.428321 1442.74 362.637)" fill="#A6A8AB" fill-opacity="0.07"/>
<circle cx="1461.74" cy="362.779" r="5" transform="rotate(0.428321 1461.74 362.779)" fill="#A6A8AB" fill-opacity="0.07"/>
<circle cx="1480.74" cy="362.922" r="5" transform="rotate(0.428321 1480.74 362.922)" fill="#A6A8AB" fill-opacity="0.07"/>
<circle cx="1499.74" cy="363.064" r="5" transform="rotate(0.428321 1499.74 363.064)" fill="#A6A8AB" fill-opacity="0.07"/>
<circle cx="1518.74" cy="363.205" r="5" transform="rotate(0.428321 1518.74 363.205)" fill="#A6A8AB" fill-opacity="0.07"/>
<circle cx="1537.74" cy="363.347" r="5" transform="rotate(0.428321 1537.74 363.347)" fill="#A6A8AB" fill-opacity="0.07"/>
<circle cx="1556.74" cy="363.489" r="5" transform="rotate(0.428321 1556.74 363.489)" fill="#A6A8AB" fill-opacity="0.07"/>
<circle cx="1575.74" cy="363.631" r="5" transform="rotate(0.428321 1575.74 363.631)" fill="#A6A8AB" fill-opacity="0.07"/>
<circle cx="1594.74" cy="363.774" r="5" transform="rotate(0.428321 1594.74 363.774)" fill="#A6A8AB" fill-opacity="0.07"/>
<circle cx="1613.74" cy="363.916" r="5" transform="rotate(0.428321 1613.74 363.916)" fill="#A6A8AB" fill-opacity="0.07"/>
<circle cx="1632.74" cy="364.058" r="5" transform="rotate(0.428321 1632.74 364.058)" fill="#A6A8AB" fill-opacity="0.07"/>
<circle cx="1651.74" cy="364.2" r="5" transform="rotate(0.428321 1651.74 364.2)" fill="#A6A8AB" fill-opacity="0.07"/>
<circle cx="1670.74" cy="364.342" r="5" transform="rotate(0.428321 1670.74 364.342)" fill="#A6A8AB" fill-opacity="0.07"/>
<circle cx="1689.74" cy="364.484" r="5" transform="rotate(0.428321 1689.74 364.484)" fill="#A6A8AB" fill-opacity="0.07"/>
<circle cx="1708.74" cy="364.626" r="5" transform="rotate(0.428321 1708.74 364.626)" fill="#A6A8AB" fill-opacity="0.07"/>
</g>
<g clip-path="url(#clip19)">
<circle cx="1423.6" cy="381.495" r="5" transform="rotate(0.428321 1423.6 381.495)" fill="#A6A8AB" fill-opacity="0.07"/>
<circle cx="1442.6" cy="381.637" r="5" transform="rotate(0.428321 1442.6 381.637)" fill="#A6A8AB" fill-opacity="0.07"/>
<circle cx="1461.6" cy="381.779" r="5" transform="rotate(0.428321 1461.6 381.779)" fill="#A6A8AB" fill-opacity="0.07"/>
<circle cx="1480.6" cy="381.921" r="5" transform="rotate(0.428321 1480.6 381.921)" fill="#A6A8AB" fill-opacity="0.07"/>
<circle cx="1499.6" cy="382.063" r="5" transform="rotate(0.428321 1499.6 382.063)" fill="#A6A8AB" fill-opacity="0.07"/>
<circle cx="1518.6" cy="382.205" r="5" transform="rotate(0.428321 1518.6 382.205)" fill="#A6A8AB" fill-opacity="0.07"/>
<circle cx="1537.6" cy="382.347" r="5" transform="rotate(0.428321 1537.6 382.347)" fill="#A6A8AB" fill-opacity="0.07"/>
<circle cx="1556.6" cy="382.489" r="5" transform="rotate(0.428321 1556.6 382.489)" fill="#A6A8AB" fill-opacity="0.07"/>
<circle cx="1575.6" cy="382.631" r="5" transform="rotate(0.428321 1575.6 382.631)" fill="#A6A8AB" fill-opacity="0.07"/>
<circle cx="1594.6" cy="382.773" r="5" transform="rotate(0.428321 1594.6 382.773)" fill="#A6A8AB" fill-opacity="0.07"/>
<circle cx="1613.6" cy="382.915" r="5" transform="rotate(0.428321 1613.6 382.915)" fill="#A6A8AB" fill-opacity="0.07"/>
<circle cx="1632.6" cy="383.057" r="5" transform="rotate(0.428321 1632.6 383.057)" fill="#A6A8AB" fill-opacity="0.07"/>
<circle cx="1651.6" cy="383.199" r="5" transform="rotate(0.428321 1651.6 383.199)" fill="#A6A8AB" fill-opacity="0.07"/>
<circle cx="1670.6" cy="383.341" r="5" transform="rotate(0.428321 1670.6 383.341)" fill="#A6A8AB" fill-opacity="0.07"/>
<circle cx="1689.6" cy="383.483" r="5" transform="rotate(0.428321 1689.6 383.483)" fill="#A6A8AB" fill-opacity="0.07"/>
<circle cx="1708.6" cy="383.625" r="5" transform="rotate(0.428321 1708.6 383.625)" fill="#A6A8AB" fill-opacity="0.07"/>
</g>
<g clip-path="url(#clip20)">
<circle cx="1423.46" cy="400.494" r="5" transform="rotate(0.428321 1423.46 400.494)" fill="#A6A8AB" fill-opacity="0.07"/>
<circle cx="1442.46" cy="400.636" r="5" transform="rotate(0.428321 1442.46 400.636)" fill="#A6A8AB" fill-opacity="0.07"/>
<circle cx="1461.46" cy="400.778" r="5" transform="rotate(0.428321 1461.46 400.778)" fill="#A6A8AB" fill-opacity="0.07"/>
<circle cx="1480.46" cy="400.921" r="5" transform="rotate(0.428321 1480.46 400.921)" fill="#A6A8AB" fill-opacity="0.07"/>
<circle cx="1499.46" cy="401.063" r="5" transform="rotate(0.428321 1499.46 401.063)" fill="#A6A8AB" fill-opacity="0.07"/>
<circle cx="1518.46" cy="401.204" r="5" transform="rotate(0.428321 1518.46 401.204)" fill="#A6A8AB" fill-opacity="0.07"/>
<circle cx="1537.46" cy="401.346" r="5" transform="rotate(0.428321 1537.46 401.346)" fill="#A6A8AB" fill-opacity="0.07"/>
<circle cx="1556.46" cy="401.488" r="5" transform="rotate(0.428321 1556.46 401.488)" fill="#A6A8AB" fill-opacity="0.07"/>
<circle cx="1575.46" cy="401.63" r="5" transform="rotate(0.428321 1575.46 401.63)" fill="#A6A8AB" fill-opacity="0.07"/>
<circle cx="1594.46" cy="401.773" r="5" transform="rotate(0.428321 1594.46 401.773)" fill="#A6A8AB" fill-opacity="0.07"/>
<circle cx="1613.46" cy="401.915" r="5" transform="rotate(0.428321 1613.46 401.915)" fill="#A6A8AB" fill-opacity="0.07"/>
<circle cx="1632.46" cy="402.057" r="5" transform="rotate(0.428321 1632.46 402.057)" fill="#A6A8AB" fill-opacity="0.07"/>
<circle cx="1651.45" cy="402.199" r="5" transform="rotate(0.428321 1651.45 402.199)" fill="#A6A8AB" fill-opacity="0.07"/>
<circle cx="1670.45" cy="402.341" r="5" transform="rotate(0.428321 1670.45 402.341)" fill="#A6A8AB" fill-opacity="0.07"/>
<circle cx="1689.45" cy="402.483" r="5" transform="rotate(0.428321 1689.45 402.483)" fill="#A6A8AB" fill-opacity="0.07"/>
<circle cx="1708.45" cy="402.625" r="5" transform="rotate(0.428321 1708.45 402.625)" fill="#A6A8AB" fill-opacity="0.07"/>
</g>
<g clip-path="url(#clip21)">
<circle cx="1423.32" cy="419.493" r="5" transform="rotate(0.428321 1423.32 419.493)" fill="#A6A8AB" fill-opacity="0.07"/>
<circle cx="1442.32" cy="419.635" r="5" transform="rotate(0.428321 1442.32 419.635)" fill="#A6A8AB" fill-opacity="0.07"/>
<circle cx="1461.32" cy="419.777" r="5" transform="rotate(0.428321 1461.32 419.777)" fill="#A6A8AB" fill-opacity="0.07"/>
<circle cx="1480.32" cy="419.92" r="5" transform="rotate(0.428321 1480.32 419.92)" fill="#A6A8AB" fill-opacity="0.07"/>
<circle cx="1499.32" cy="420.062" r="5" transform="rotate(0.428321 1499.32 420.062)" fill="#A6A8AB" fill-opacity="0.07"/>
<circle cx="1518.32" cy="420.203" r="5" transform="rotate(0.428321 1518.32 420.203)" fill="#A6A8AB" fill-opacity="0.07"/>
<circle cx="1537.32" cy="420.345" r="5" transform="rotate(0.428321 1537.32 420.345)" fill="#A6A8AB" fill-opacity="0.07"/>
<circle cx="1556.32" cy="420.487" r="5" transform="rotate(0.428321 1556.32 420.487)" fill="#A6A8AB" fill-opacity="0.07"/>
<circle cx="1575.31" cy="420.63" r="5" transform="rotate(0.428321 1575.31 420.63)" fill="#A6A8AB" fill-opacity="0.07"/>
<circle cx="1594.31" cy="420.772" r="5" transform="rotate(0.428321 1594.31 420.772)" fill="#A6A8AB" fill-opacity="0.07"/>
<circle cx="1613.31" cy="420.914" r="5" transform="rotate(0.428321 1613.31 420.914)" fill="#A6A8AB" fill-opacity="0.07"/>
<circle cx="1632.31" cy="421.056" r="5" transform="rotate(0.428321 1632.31 421.056)" fill="#A6A8AB" fill-opacity="0.07"/>
<circle cx="1651.31" cy="421.198" r="5" transform="rotate(0.428321 1651.31 421.198)" fill="#A6A8AB" fill-opacity="0.07"/>
<circle cx="1670.31" cy="421.34" r="5" transform="rotate(0.428321 1670.31 421.34)" fill="#A6A8AB" fill-opacity="0.07"/>
<circle cx="1689.31" cy="421.482" r="5" transform="rotate(0.428321 1689.31 421.482)" fill="#A6A8AB" fill-opacity="0.07"/>
<circle cx="1708.31" cy="421.624" r="5" transform="rotate(0.428321 1708.31 421.624)" fill="#A6A8AB" fill-opacity="0.07"/>
</g>
<g clip-path="url(#clip22)">
<circle cx="1423.18" cy="438.493" r="5" transform="rotate(0.428321 1423.18 438.493)" fill="#A6A8AB" fill-opacity="0.07"/>
<circle cx="1442.18" cy="438.635" r="5" transform="rotate(0.428321 1442.18 438.635)" fill="#A6A8AB" fill-opacity="0.07"/>
<circle cx="1461.18" cy="438.777" r="5" transform="rotate(0.428321 1461.18 438.777)" fill="#A6A8AB" fill-opacity="0.07"/>
<circle cx="1480.18" cy="438.919" r="5" transform="rotate(0.428321 1480.18 438.919)" fill="#A6A8AB" fill-opacity="0.07"/>
<circle cx="1499.17" cy="439.061" r="5" transform="rotate(0.428321 1499.17 439.061)" fill="#A6A8AB" fill-opacity="0.07"/>
<circle cx="1518.17" cy="439.203" r="5" transform="rotate(0.428321 1518.17 439.203)" fill="#A6A8AB" fill-opacity="0.07"/>
<circle cx="1537.17" cy="439.345" r="5" transform="rotate(0.428321 1537.17 439.345)" fill="#A6A8AB" fill-opacity="0.07"/>
<circle cx="1556.17" cy="439.487" r="5" transform="rotate(0.428321 1556.17 439.487)" fill="#A6A8AB" fill-opacity="0.07"/>
<circle cx="1575.17" cy="439.629" r="5" transform="rotate(0.428321 1575.17 439.629)" fill="#A6A8AB" fill-opacity="0.07"/>
<circle cx="1594.17" cy="439.771" r="5" transform="rotate(0.428321 1594.17 439.771)" fill="#A6A8AB" fill-opacity="0.07"/>
<circle cx="1613.17" cy="439.913" r="5" transform="rotate(0.428321 1613.17 439.913)" fill="#A6A8AB" fill-opacity="0.07"/>
<circle cx="1632.17" cy="440.055" r="5" transform="rotate(0.428321 1632.17 440.055)" fill="#A6A8AB" fill-opacity="0.07"/>
<circle cx="1651.17" cy="440.197" r="5" transform="rotate(0.428321 1651.17 440.197)" fill="#A6A8AB" fill-opacity="0.07"/>
<circle cx="1670.17" cy="440.339" r="5" transform="rotate(0.428321 1670.17 440.339)" fill="#A6A8AB" fill-opacity="0.07"/>
<circle cx="1689.17" cy="440.481" r="5" transform="rotate(0.428321 1689.17 440.481)" fill="#A6A8AB" fill-opacity="0.07"/>
<circle cx="1708.17" cy="440.623" r="5" transform="rotate(0.428321 1708.17 440.623)" fill="#A6A8AB" fill-opacity="0.07"/>
</g>
<g clip-path="url(#clip23)">
<circle cx="1423.03" cy="457.492" r="5" transform="rotate(0.428321 1423.03 457.492)" fill="#A6A8AB" fill-opacity="0.07"/>
<circle cx="1442.03" cy="457.634" r="5" transform="rotate(0.428321 1442.03 457.634)" fill="#A6A8AB" fill-opacity="0.07"/>
<circle cx="1461.03" cy="457.776" r="5" transform="rotate(0.428321 1461.03 457.776)" fill="#A6A8AB" fill-opacity="0.07"/>
<circle cx="1480.03" cy="457.919" r="5" transform="rotate(0.428321 1480.03 457.919)" fill="#A6A8AB" fill-opacity="0.07"/>
<circle cx="1499.03" cy="458.061" r="5" transform="rotate(0.428321 1499.03 458.061)" fill="#A6A8AB" fill-opacity="0.07"/>
<circle cx="1518.03" cy="458.202" r="5" transform="rotate(0.428321 1518.03 458.202)" fill="#A6A8AB" fill-opacity="0.07"/>
<circle cx="1537.03" cy="458.344" r="5" transform="rotate(0.428321 1537.03 458.344)" fill="#A6A8AB" fill-opacity="0.07"/>
<circle cx="1556.03" cy="458.486" r="5" transform="rotate(0.428321 1556.03 458.486)" fill="#A6A8AB" fill-opacity="0.07"/>
<circle cx="1575.03" cy="458.629" r="5" transform="rotate(0.428321 1575.03 458.629)" fill="#A6A8AB" fill-opacity="0.07"/>
<circle cx="1594.03" cy="458.771" r="5" transform="rotate(0.428321 1594.03 458.771)" fill="#A6A8AB" fill-opacity="0.07"/>
<circle cx="1613.03" cy="458.913" r="5" transform="rotate(0.428321 1613.03 458.913)" fill="#A6A8AB" fill-opacity="0.07"/>
<circle cx="1632.03" cy="459.055" r="5" transform="rotate(0.428321 1632.03 459.055)" fill="#A6A8AB" fill-opacity="0.07"/>
<circle cx="1651.03" cy="459.197" r="5" transform="rotate(0.428321 1651.03 459.197)" fill="#A6A8AB" fill-opacity="0.07"/>
<circle cx="1670.03" cy="459.339" r="5" transform="rotate(0.428321 1670.03 459.339)" fill="#A6A8AB" fill-opacity="0.07"/>
<circle cx="1689.03" cy="459.481" r="5" transform="rotate(0.428321 1689.03 459.481)" fill="#A6A8AB" fill-opacity="0.07"/>
<circle cx="1708.03" cy="459.623" r="5" transform="rotate(0.428321 1708.03 459.623)" fill="#A6A8AB" fill-opacity="0.07"/>
</g>
<g clip-path="url(#clip24)">
<circle cx="1422.89" cy="476.492" r="5" transform="rotate(0.428321 1422.89 476.492)" fill="#A6A8AB" fill-opacity="0.07"/>
<circle cx="1441.89" cy="476.634" r="5" transform="rotate(0.428321 1441.89 476.634)" fill="#A6A8AB" fill-opacity="0.07"/>
<circle cx="1460.89" cy="476.776" r="5" transform="rotate(0.428321 1460.89 476.776)" fill="#A6A8AB" fill-opacity="0.07"/>
<circle cx="1479.89" cy="476.918" r="5" transform="rotate(0.428321 1479.89 476.918)" fill="#A6A8AB" fill-opacity="0.07"/>
<circle cx="1498.89" cy="477.06" r="5" transform="rotate(0.428321 1498.89 477.06)" fill="#A6A8AB" fill-opacity="0.07"/>
<circle cx="1517.89" cy="477.202" r="5" transform="rotate(0.428321 1517.89 477.202)" fill="#A6A8AB" fill-opacity="0.07"/>
<circle cx="1536.89" cy="477.344" r="5" transform="rotate(0.428321 1536.89 477.344)" fill="#A6A8AB" fill-opacity="0.07"/>
<circle cx="1555.89" cy="477.486" r="5" transform="rotate(0.428321 1555.89 477.486)" fill="#A6A8AB" fill-opacity="0.07"/>
<circle cx="1574.89" cy="477.628" r="5" transform="rotate(0.428321 1574.89 477.628)" fill="#A6A8AB" fill-opacity="0.07"/>
<circle cx="1593.89" cy="477.77" r="5" transform="rotate(0.428321 1593.89 477.77)" fill="#A6A8AB" fill-opacity="0.07"/>
<circle cx="1612.89" cy="477.912" r="5" transform="rotate(0.428321 1612.89 477.912)" fill="#A6A8AB" fill-opacity="0.07"/>
<circle cx="1631.89" cy="478.054" r="5" transform="rotate(0.428321 1631.89 478.054)" fill="#A6A8AB" fill-opacity="0.07"/>
<circle cx="1650.89" cy="478.196" r="5" transform="rotate(0.428321 1650.89 478.196)" fill="#A6A8AB" fill-opacity="0.07"/>
<circle cx="1669.89" cy="478.339" r="5" transform="rotate(0.428321 1669.89 478.339)" fill="#A6A8AB" fill-opacity="0.07"/>
<circle cx="1688.89" cy="478.48" r="5" transform="rotate(0.428321 1688.89 478.48)" fill="#A6A8AB" fill-opacity="0.07"/>
<circle cx="1707.88" cy="478.622" r="5" transform="rotate(0.428321 1707.88 478.622)" fill="#A6A8AB" fill-opacity="0.07"/>
</g>
<g clip-path="url(#clip25)">
<circle cx="1422.75" cy="495.491" r="5" transform="rotate(0.428321 1422.75 495.491)" fill="#A6A8AB" fill-opacity="0.07"/>
<circle cx="1441.75" cy="495.633" r="5" transform="rotate(0.428321 1441.75 495.633)" fill="#A6A8AB" fill-opacity="0.07"/>
<circle cx="1460.75" cy="495.776" r="5" transform="rotate(0.428321 1460.75 495.776)" fill="#A6A8AB" fill-opacity="0.07"/>
<circle cx="1479.75" cy="495.918" r="5" transform="rotate(0.428321 1479.75 495.918)" fill="#A6A8AB" fill-opacity="0.07"/>
<circle cx="1498.75" cy="496.06" r="5" transform="rotate(0.428321 1498.75 496.06)" fill="#A6A8AB" fill-opacity="0.07"/>
<circle cx="1517.75" cy="496.201" r="5" transform="rotate(0.428321 1517.75 496.201)" fill="#A6A8AB" fill-opacity="0.07"/>
<circle cx="1536.75" cy="496.343" r="5" transform="rotate(0.428321 1536.75 496.343)" fill="#A6A8AB" fill-opacity="0.07"/>
<circle cx="1555.75" cy="496.485" r="5" transform="rotate(0.428321 1555.75 496.485)" fill="#A6A8AB" fill-opacity="0.07"/>
<circle cx="1574.75" cy="496.628" r="5" transform="rotate(0.428321 1574.75 496.628)" fill="#A6A8AB" fill-opacity="0.07"/>
<circle cx="1593.75" cy="496.77" r="5" transform="rotate(0.428321 1593.75 496.77)" fill="#A6A8AB" fill-opacity="0.07"/>
<circle cx="1612.75" cy="496.912" r="5" transform="rotate(0.428321 1612.75 496.912)" fill="#A6A8AB" fill-opacity="0.07"/>
<circle cx="1631.75" cy="497.054" r="5" transform="rotate(0.428321 1631.75 497.054)" fill="#A6A8AB" fill-opacity="0.07"/>
<circle cx="1650.74" cy="497.196" r="5" transform="rotate(0.428321 1650.74 497.196)" fill="#A6A8AB" fill-opacity="0.07"/>
<circle cx="1669.74" cy="497.338" r="5" transform="rotate(0.428321 1669.74 497.338)" fill="#A6A8AB" fill-opacity="0.07"/>
<circle cx="1688.74" cy="497.48" r="5" transform="rotate(0.428321 1688.74 497.48)" fill="#A6A8AB" fill-opacity="0.07"/>
<circle cx="1707.74" cy="497.622" r="5" transform="rotate(0.428321 1707.74 497.622)" fill="#A6A8AB" fill-opacity="0.07"/>
</g>
<g clip-path="url(#clip26)">
<circle cx="1422.61" cy="514.491" r="5" transform="rotate(0.428321 1422.61 514.491)" fill="#A6A8AB" fill-opacity="0.07"/>
<circle cx="1441.61" cy="514.633" r="5" transform="rotate(0.428321 1441.61 514.633)" fill="#A6A8AB" fill-opacity="0.07"/>
<circle cx="1460.61" cy="514.775" r="5" transform="rotate(0.428321 1460.61 514.775)" fill="#A6A8AB" fill-opacity="0.07"/>
<circle cx="1479.61" cy="514.917" r="5" transform="rotate(0.428321 1479.61 514.917)" fill="#A6A8AB" fill-opacity="0.07"/>
<circle cx="1498.61" cy="515.059" r="5" transform="rotate(0.428321 1498.61 515.059)" fill="#A6A8AB" fill-opacity="0.07"/>
<circle cx="1517.61" cy="515.201" r="5" transform="rotate(0.428321 1517.61 515.201)" fill="#A6A8AB" fill-opacity="0.07"/>
<circle cx="1536.61" cy="515.343" r="5" transform="rotate(0.428321 1536.61 515.343)" fill="#A6A8AB" fill-opacity="0.07"/>
<circle cx="1555.61" cy="515.485" r="5" transform="rotate(0.428321 1555.61 515.485)" fill="#A6A8AB" fill-opacity="0.07"/>
<circle cx="1574.6" cy="515.627" r="5" transform="rotate(0.428321 1574.6 515.627)" fill="#A6A8AB" fill-opacity="0.07"/>
<circle cx="1593.6" cy="515.769" r="5" transform="rotate(0.428321 1593.6 515.769)" fill="#A6A8AB" fill-opacity="0.07"/>
<circle cx="1612.6" cy="515.911" r="5" transform="rotate(0.428321 1612.6 515.911)" fill="#A6A8AB" fill-opacity="0.07"/>
<circle cx="1631.6" cy="516.053" r="5" transform="rotate(0.428321 1631.6 516.053)" fill="#A6A8AB" fill-opacity="0.07"/>
<circle cx="1650.6" cy="516.195" r="5" transform="rotate(0.428321 1650.6 516.195)" fill="#A6A8AB" fill-opacity="0.07"/>
<circle cx="1669.6" cy="516.338" r="5" transform="rotate(0.428321 1669.6 516.338)" fill="#A6A8AB" fill-opacity="0.07"/>
<circle cx="1688.6" cy="516.479" r="5" transform="rotate(0.428321 1688.6 516.479)" fill="#A6A8AB" fill-opacity="0.07"/>
<circle cx="1707.6" cy="516.621" r="5" transform="rotate(0.428321 1707.6 516.621)" fill="#A6A8AB" fill-opacity="0.07"/>
</g>
</g>
<defs>
<clipPath id="clip0">
<rect width="238" height="200" fill="white" transform="translate(374.039 334.709) rotate(0.428321)"/>
</clipPath>
<clipPath id="clip1">
<rect width="300" height="19" fill="white" transform="translate(374.039 334.709) rotate(0.428321)"/>
</clipPath>
<clipPath id="clip2">
<rect width="300" height="19" fill="white" transform="translate(373.897 353.708) rotate(0.428321)"/>
</clipPath>
<clipPath id="clip3">
<rect width="300" height="19" fill="white" transform="translate(373.755 372.708) rotate(0.428321)"/>
</clipPath>
<clipPath id="clip4">
<rect width="300" height="19" fill="white" transform="translate(373.613 391.708) rotate(0.428321)"/>
</clipPath>
<clipPath id="clip5">
<rect width="300" height="19" fill="white" transform="translate(373.471 410.707) rotate(0.428321)"/>
</clipPath>
<clipPath id="clip6">
<rect width="300" height="19" fill="white" transform="translate(373.329 429.707) rotate(0.428321)"/>
</clipPath>
<clipPath id="clip7">
<rect width="300" height="19" fill="white" transform="translate(373.187 448.706) rotate(0.428321)"/>
</clipPath>
<clipPath id="clip8">
<rect width="300" height="19" fill="white" transform="translate(373.045 467.705) rotate(0.428321)"/>
</clipPath>
<clipPath id="clip9">
<rect width="300" height="19" fill="white" transform="translate(372.903 486.705) rotate(0.428321)"/>
</clipPath>
<clipPath id="clip10">
<rect width="300" height="19" fill="white" transform="translate(372.761 505.704) rotate(0.428321)"/>
</clipPath>
<clipPath id="clip11">
<rect width="300" height="19" fill="white" transform="translate(372.619 524.704) rotate(0.428321)"/>
</clipPath>
<clipPath id="clip12">
<rect width="300" height="258" fill="white" transform="translate(1419.42 262.345) rotate(0.428321)"/>
</clipPath>
<clipPath id="clip13">
<rect width="300" height="19" fill="white" transform="translate(1419.49 262.46) rotate(0.428321)"/>
</clipPath>
<clipPath id="clip14">
<rect width="300" height="19" fill="white" transform="translate(1419.35 281.46) rotate(0.428321)"/>
</clipPath>
<clipPath id="clip15">
<rect width="300" height="19" fill="white" transform="translate(1419.21 300.459) rotate(0.428321)"/>
</clipPath>
<clipPath id="clip16">
<rect width="300" height="19" fill="white" transform="translate(1419.07 319.459) rotate(0.428321)"/>
</clipPath>
<clipPath id="clip17">
<rect width="300" height="19" fill="white" transform="translate(1418.92 338.458) rotate(0.428321)"/>
</clipPath>
<clipPath id="clip18">
<rect width="300" height="19" fill="white" transform="translate(1418.78 357.458) rotate(0.428321)"/>
</clipPath>
<clipPath id="clip19">
<rect width="300" height="19" fill="white" transform="translate(1418.64 376.458) rotate(0.428321)"/>
</clipPath>
<clipPath id="clip20">
<rect width="300" height="19" fill="white" transform="translate(1418.5 395.457) rotate(0.428321)"/>
</clipPath>
<clipPath id="clip21">
<rect width="300" height="19" fill="white" transform="translate(1418.36 414.456) rotate(0.428321)"/>
</clipPath>
<clipPath id="clip22">
<rect width="300" height="19" fill="white" transform="translate(1418.21 433.456) rotate(0.428321)"/>
</clipPath>
<clipPath id="clip23">
<rect width="300" height="19" fill="white" transform="translate(1418.07 452.455) rotate(0.428321)"/>
</clipPath>
<clipPath id="clip24">
<rect width="300" height="19" fill="white" transform="translate(1417.93 471.455) rotate(0.428321)"/>
</clipPath>
<clipPath id="clip25">
<rect width="300" height="19" fill="white" transform="translate(1417.79 490.454) rotate(0.428321)"/>
</clipPath>
<clipPath id="clip26">
<rect width="300" height="19" fill="white" transform="translate(1417.65 509.454) rotate(0.428321)"/>
</clipPath>
</defs>
</svg>
