<svg width="1920" height="1026" viewBox="0 0 1920 1026" fill="none" xmlns="http://www.w3.org/2000/svg">
<path d="M1921.41 -5.94891H-13.0679V495.819L53.7406 741.368C68.1331 794.266 113.509 832.914 168.023 838.706L1921.41 1025V-5.94891Z" fill="#0B0C10" stroke="#261D56"/>
<g clip-path="url(#clip0)">
<g clip-path="url(#clip1)">
<circle cx="947.078" cy="638.2" r="5" fill="#5B5194" fill-opacity="0.47"/>
<circle cx="966.078" cy="638.2" r="5" fill="#5B5194" fill-opacity="0.47"/>
<circle cx="985.078" cy="638.2" r="5" fill="#5B5194" fill-opacity="0.47"/>
<circle cx="1004.08" cy="638.2" r="5" fill="#5B5194" fill-opacity="0.47"/>
<circle cx="1023.08" cy="638.2" r="5" fill="#5B5194" fill-opacity="0.47"/>
<circle cx="1042.08" cy="638.2" r="5" fill="#5B5194" fill-opacity="0.47"/>
<circle cx="1061.08" cy="638.2" r="5" fill="#5B5194" fill-opacity="0.47"/>
<circle cx="1080.08" cy="638.2" r="5" fill="#5B5194" fill-opacity="0.47"/>
<circle cx="1099.08" cy="638.2" r="5" fill="#5B5194" fill-opacity="0.47"/>
<circle cx="1118.08" cy="638.2" r="5" fill="#5B5194" fill-opacity="0.47"/>
<circle cx="1137.08" cy="638.2" r="5" fill="#5B5194" fill-opacity="0.47"/>
<circle cx="1156.08" cy="638.2" r="5" fill="#5B5194" fill-opacity="0.47"/>
<circle cx="1175.08" cy="638.2" r="5" fill="#5B5194" fill-opacity="0.47"/>
</g>
<g clip-path="url(#clip2)">
<circle cx="947.078" cy="657.2" r="5" fill="#5B5194" fill-opacity="0.47"/>
<circle cx="966.078" cy="657.2" r="5" fill="#5B5194" fill-opacity="0.47"/>
<circle cx="985.078" cy="657.2" r="5" fill="#5B5194" fill-opacity="0.47"/>
<circle cx="1004.08" cy="657.2" r="5" fill="#5B5194" fill-opacity="0.47"/>
<circle cx="1023.08" cy="657.2" r="5" fill="#5B5194" fill-opacity="0.47"/>
<circle cx="1042.08" cy="657.2" r="5" fill="#5B5194" fill-opacity="0.47"/>
<circle cx="1061.08" cy="657.2" r="5" fill="#5B5194" fill-opacity="0.47"/>
<circle cx="1080.08" cy="657.2" r="5" fill="#5B5194" fill-opacity="0.47"/>
<circle cx="1099.08" cy="657.2" r="5" fill="#5B5194" fill-opacity="0.47"/>
<circle cx="1118.08" cy="657.2" r="5" fill="#5B5194" fill-opacity="0.47"/>
<circle cx="1137.08" cy="657.2" r="5" fill="#5B5194" fill-opacity="0.47"/>
<circle cx="1156.08" cy="657.2" r="5" fill="#5B5194" fill-opacity="0.47"/>
<circle cx="1175.08" cy="657.2" r="5" fill="#5B5194" fill-opacity="0.47"/>
</g>
<g clip-path="url(#clip3)">
<circle cx="947.078" cy="676.2" r="5" fill="#5B5194" fill-opacity="0.47"/>
<circle cx="966.078" cy="676.2" r="5" fill="#5B5194" fill-opacity="0.47"/>
<circle cx="985.078" cy="676.2" r="5" fill="#5B5194" fill-opacity="0.47"/>
<circle cx="1004.08" cy="676.2" r="5" fill="#5B5194" fill-opacity="0.47"/>
<circle cx="1023.08" cy="676.2" r="5" fill="#5B5194" fill-opacity="0.47"/>
<circle cx="1042.08" cy="676.2" r="5" fill="#5B5194" fill-opacity="0.47"/>
<circle cx="1061.08" cy="676.2" r="5" fill="#5B5194" fill-opacity="0.47"/>
<circle cx="1080.08" cy="676.2" r="5" fill="#5B5194" fill-opacity="0.47"/>
<circle cx="1099.08" cy="676.2" r="5" fill="#5B5194" fill-opacity="0.47"/>
<circle cx="1118.08" cy="676.2" r="5" fill="#5B5194" fill-opacity="0.47"/>
<circle cx="1137.08" cy="676.2" r="5" fill="#5B5194" fill-opacity="0.47"/>
<circle cx="1156.08" cy="676.2" r="5" fill="#5B5194" fill-opacity="0.47"/>
<circle cx="1175.08" cy="676.2" r="5" fill="#5B5194" fill-opacity="0.47"/>
</g>
<g clip-path="url(#clip4)">
<circle cx="947.078" cy="695.2" r="5" fill="#5B5194" fill-opacity="0.47"/>
<circle cx="966.078" cy="695.2" r="5" fill="#5B5194" fill-opacity="0.47"/>
<circle cx="985.078" cy="695.2" r="5" fill="#5B5194" fill-opacity="0.47"/>
<circle cx="1004.08" cy="695.2" r="5" fill="#5B5194" fill-opacity="0.47"/>
<circle cx="1023.08" cy="695.2" r="5" fill="#5B5194" fill-opacity="0.47"/>
<circle cx="1042.08" cy="695.2" r="5" fill="#5B5194" fill-opacity="0.47"/>
<circle cx="1061.08" cy="695.2" r="5" fill="#5B5194" fill-opacity="0.47"/>
<circle cx="1080.08" cy="695.2" r="5" fill="#5B5194" fill-opacity="0.47"/>
<circle cx="1099.08" cy="695.2" r="5" fill="#5B5194" fill-opacity="0.47"/>
<circle cx="1118.08" cy="695.2" r="5" fill="#5B5194" fill-opacity="0.47"/>
<circle cx="1137.08" cy="695.2" r="5" fill="#5B5194" fill-opacity="0.47"/>
<circle cx="1156.08" cy="695.2" r="5" fill="#5B5194" fill-opacity="0.47"/>
<circle cx="1175.08" cy="695.2" r="5" fill="#5B5194" fill-opacity="0.47"/>
</g>
<g clip-path="url(#clip5)">
<circle cx="947.078" cy="714.2" r="5" fill="#5B5194" fill-opacity="0.47"/>
<circle cx="966.078" cy="714.2" r="5" fill="#5B5194" fill-opacity="0.47"/>
<circle cx="985.078" cy="714.2" r="5" fill="#5B5194" fill-opacity="0.47"/>
<circle cx="1004.08" cy="714.2" r="5" fill="#5B5194" fill-opacity="0.47"/>
<circle cx="1023.08" cy="714.2" r="5" fill="#5B5194" fill-opacity="0.47"/>
<circle cx="1042.08" cy="714.2" r="5" fill="#5B5194" fill-opacity="0.47"/>
<circle cx="1061.08" cy="714.2" r="5" fill="#5B5194" fill-opacity="0.47"/>
<circle cx="1080.08" cy="714.2" r="5" fill="#5B5194" fill-opacity="0.47"/>
<circle cx="1099.08" cy="714.2" r="5" fill="#5B5194" fill-opacity="0.47"/>
<circle cx="1118.08" cy="714.2" r="5" fill="#5B5194" fill-opacity="0.47"/>
<circle cx="1137.08" cy="714.2" r="5" fill="#5B5194" fill-opacity="0.47"/>
<circle cx="1156.08" cy="714.2" r="5" fill="#5B5194" fill-opacity="0.47"/>
<circle cx="1175.08" cy="714.2" r="5" fill="#5B5194" fill-opacity="0.47"/>
</g>
<g clip-path="url(#clip6)">
<circle cx="947.078" cy="733.2" r="5" fill="#5B5194" fill-opacity="0.47"/>
<circle cx="966.078" cy="733.2" r="5" fill="#5B5194" fill-opacity="0.47"/>
<circle cx="985.078" cy="733.2" r="5" fill="#5B5194" fill-opacity="0.47"/>
<circle cx="1004.08" cy="733.2" r="5" fill="#5B5194" fill-opacity="0.47"/>
<circle cx="1023.08" cy="733.2" r="5" fill="#5B5194" fill-opacity="0.47"/>
<circle cx="1042.08" cy="733.2" r="5" fill="#5B5194" fill-opacity="0.47"/>
<circle cx="1061.08" cy="733.2" r="5" fill="#5B5194" fill-opacity="0.47"/>
<circle cx="1080.08" cy="733.2" r="5" fill="#5B5194" fill-opacity="0.47"/>
<circle cx="1099.08" cy="733.2" r="5" fill="#5B5194" fill-opacity="0.47"/>
<circle cx="1118.08" cy="733.2" r="5" fill="#5B5194" fill-opacity="0.47"/>
<circle cx="1137.08" cy="733.2" r="5" fill="#5B5194" fill-opacity="0.47"/>
<circle cx="1156.08" cy="733.2" r="5" fill="#5B5194" fill-opacity="0.47"/>
<circle cx="1175.08" cy="733.2" r="5" fill="#5B5194" fill-opacity="0.47"/>
</g>
<g clip-path="url(#clip7)">
<circle cx="947.078" cy="752.2" r="5" fill="#5B5194" fill-opacity="0.47"/>
<circle cx="966.078" cy="752.2" r="5" fill="#5B5194" fill-opacity="0.47"/>
<circle cx="985.078" cy="752.2" r="5" fill="#5B5194" fill-opacity="0.47"/>
<circle cx="1004.08" cy="752.2" r="5" fill="#5B5194" fill-opacity="0.47"/>
<circle cx="1023.08" cy="752.2" r="5" fill="#5B5194" fill-opacity="0.47"/>
<circle cx="1042.08" cy="752.2" r="5" fill="#5B5194" fill-opacity="0.47"/>
<circle cx="1061.08" cy="752.2" r="5" fill="#5B5194" fill-opacity="0.47"/>
<circle cx="1080.08" cy="752.2" r="5" fill="#5B5194" fill-opacity="0.47"/>
<circle cx="1099.08" cy="752.2" r="5" fill="#5B5194" fill-opacity="0.47"/>
<circle cx="1118.08" cy="752.2" r="5" fill="#5B5194" fill-opacity="0.47"/>
<circle cx="1137.08" cy="752.2" r="5" fill="#5B5194" fill-opacity="0.47"/>
<circle cx="1156.08" cy="752.2" r="5" fill="#5B5194" fill-opacity="0.47"/>
<circle cx="1175.08" cy="752.2" r="5" fill="#5B5194" fill-opacity="0.47"/>
</g>
<g clip-path="url(#clip8)">
<circle cx="947.078" cy="771.2" r="5" fill="#5B5194" fill-opacity="0.47"/>
<circle cx="966.078" cy="771.2" r="5" fill="#5B5194" fill-opacity="0.47"/>
<circle cx="985.078" cy="771.2" r="5" fill="#5B5194" fill-opacity="0.47"/>
<circle cx="1004.08" cy="771.2" r="5" fill="#5B5194" fill-opacity="0.47"/>
<circle cx="1023.08" cy="771.2" r="5" fill="#5B5194" fill-opacity="0.47"/>
<circle cx="1042.08" cy="771.2" r="5" fill="#5B5194" fill-opacity="0.47"/>
<circle cx="1061.08" cy="771.2" r="5" fill="#5B5194" fill-opacity="0.47"/>
<circle cx="1080.08" cy="771.2" r="5" fill="#5B5194" fill-opacity="0.47"/>
<circle cx="1099.08" cy="771.2" r="5" fill="#5B5194" fill-opacity="0.47"/>
<circle cx="1118.08" cy="771.2" r="5" fill="#5B5194" fill-opacity="0.47"/>
<circle cx="1137.08" cy="771.2" r="5" fill="#5B5194" fill-opacity="0.47"/>
<circle cx="1156.08" cy="771.2" r="5" fill="#5B5194" fill-opacity="0.47"/>
<circle cx="1175.08" cy="771.2" r="5" fill="#5B5194" fill-opacity="0.47"/>
</g>
<g clip-path="url(#clip9)">
<circle cx="947.078" cy="790.2" r="5" fill="#5B5194" fill-opacity="0.47"/>
<circle cx="966.078" cy="790.2" r="5" fill="#5B5194" fill-opacity="0.47"/>
<circle cx="985.078" cy="790.2" r="5" fill="#5B5194" fill-opacity="0.47"/>
<circle cx="1004.08" cy="790.2" r="5" fill="#5B5194" fill-opacity="0.47"/>
<circle cx="1023.08" cy="790.2" r="5" fill="#5B5194" fill-opacity="0.47"/>
<circle cx="1042.08" cy="790.2" r="5" fill="#5B5194" fill-opacity="0.47"/>
<circle cx="1061.08" cy="790.2" r="5" fill="#5B5194" fill-opacity="0.47"/>
<circle cx="1080.08" cy="790.2" r="5" fill="#5B5194" fill-opacity="0.47"/>
<circle cx="1099.08" cy="790.2" r="5" fill="#5B5194" fill-opacity="0.47"/>
<circle cx="1118.08" cy="790.2" r="5" fill="#5B5194" fill-opacity="0.47"/>
<circle cx="1137.08" cy="790.2" r="5" fill="#5B5194" fill-opacity="0.47"/>
<circle cx="1156.08" cy="790.2" r="5" fill="#5B5194" fill-opacity="0.47"/>
<circle cx="1175.08" cy="790.2" r="5" fill="#5B5194" fill-opacity="0.47"/>
</g>
<g clip-path="url(#clip10)">
<circle cx="947.078" cy="809.2" r="5" fill="#5B5194" fill-opacity="0.47"/>
<circle cx="966.078" cy="809.2" r="5" fill="#5B5194" fill-opacity="0.47"/>
<circle cx="985.078" cy="809.2" r="5" fill="#5B5194" fill-opacity="0.47"/>
<circle cx="1004.08" cy="809.2" r="5" fill="#5B5194" fill-opacity="0.47"/>
<circle cx="1023.08" cy="809.2" r="5" fill="#5B5194" fill-opacity="0.47"/>
<circle cx="1042.08" cy="809.2" r="5" fill="#5B5194" fill-opacity="0.47"/>
<circle cx="1061.08" cy="809.2" r="5" fill="#5B5194" fill-opacity="0.47"/>
<circle cx="1080.08" cy="809.2" r="5" fill="#5B5194" fill-opacity="0.47"/>
<circle cx="1099.08" cy="809.2" r="5" fill="#5B5194" fill-opacity="0.47"/>
<circle cx="1118.08" cy="809.2" r="5" fill="#5B5194" fill-opacity="0.47"/>
<circle cx="1137.08" cy="809.2" r="5" fill="#5B5194" fill-opacity="0.47"/>
<circle cx="1156.08" cy="809.2" r="5" fill="#5B5194" fill-opacity="0.47"/>
<circle cx="1175.08" cy="809.2" r="5" fill="#5B5194" fill-opacity="0.47"/>
</g>
<g clip-path="url(#clip11)">
<circle cx="947.078" cy="828.2" r="5" fill="#5B5194" fill-opacity="0.47"/>
<circle cx="966.078" cy="828.2" r="5" fill="#5B5194" fill-opacity="0.47"/>
<circle cx="985.078" cy="828.2" r="5" fill="#5B5194" fill-opacity="0.47"/>
<circle cx="1004.08" cy="828.2" r="5" fill="#5B5194" fill-opacity="0.47"/>
<circle cx="1023.08" cy="828.2" r="5" fill="#5B5194" fill-opacity="0.47"/>
<circle cx="1042.08" cy="828.2" r="5" fill="#5B5194" fill-opacity="0.47"/>
<circle cx="1061.08" cy="828.2" r="5" fill="#5B5194" fill-opacity="0.47"/>
<circle cx="1080.08" cy="828.2" r="5" fill="#5B5194" fill-opacity="0.47"/>
<circle cx="1099.08" cy="828.2" r="5" fill="#5B5194" fill-opacity="0.47"/>
<circle cx="1118.08" cy="828.2" r="5" fill="#5B5194" fill-opacity="0.47"/>
<circle cx="1137.08" cy="828.2" r="5" fill="#5B5194" fill-opacity="0.47"/>
<circle cx="1156.08" cy="828.2" r="5" fill="#5B5194" fill-opacity="0.47"/>
<circle cx="1175.08" cy="828.2" r="5" fill="#5B5194" fill-opacity="0.47"/>
</g>
</g>
<rect x="1.22315" y="0.722116" width="613.727" height="367.306" rx="9" transform="matrix(0.969479 -0.245173 0.253674 0.96729 1360.24 608.966)" stroke="#969696" stroke-width="2"/>
<rect width="351.975" height="172.818" transform="matrix(0.999999 0.00165238 -0.00171354 0.999999 -267.704 141.834)" fill="#2B2E38"/>
<rect width="545.981" height="268.179" transform="matrix(0.994788 -0.101961 0.105694 0.994399 1462.98 667.102)" fill="#2B2E38"/>
<defs>
<clipPath id="clip0">
<rect width="239.794" height="197.879" fill="white" transform="translate(942.078 633.2)"/>
</clipPath>
<clipPath id="clip1">
<rect width="300" height="19" fill="white" transform="translate(942.078 633.2)"/>
</clipPath>
<clipPath id="clip2">
<rect width="300" height="19" fill="white" transform="translate(942.078 652.2)"/>
</clipPath>
<clipPath id="clip3">
<rect width="300" height="19" fill="white" transform="translate(942.078 671.2)"/>
</clipPath>
<clipPath id="clip4">
<rect width="300" height="19" fill="white" transform="translate(942.078 690.2)"/>
</clipPath>
<clipPath id="clip5">
<rect width="300" height="19" fill="white" transform="translate(942.078 709.2)"/>
</clipPath>
<clipPath id="clip6">
<rect width="300" height="19" fill="white" transform="translate(942.078 728.2)"/>
</clipPath>
<clipPath id="clip7">
<rect width="300" height="19" fill="white" transform="translate(942.078 747.2)"/>
</clipPath>
<clipPath id="clip8">
<rect width="300" height="19" fill="white" transform="translate(942.078 766.2)"/>
</clipPath>
<clipPath id="clip9">
<rect width="300" height="19" fill="white" transform="translate(942.078 785.2)"/>
</clipPath>
<clipPath id="clip10">
<rect width="300" height="19" fill="white" transform="translate(942.078 804.2)"/>
</clipPath>
<clipPath id="clip11">
<rect width="300" height="19" fill="white" transform="translate(942.078 823.2)"/>
</clipPath>
</defs>
</svg>
