<svg width="160" height="97" viewBox="0 0 160 97" fill="none" xmlns="http://www.w3.org/2000/svg">
<path d="M16.0312 81.2695C16.0312 84.0977 15.2617 86.2617 13.7227 87.7617C12.1914 89.2539 9.98438 90 7.10156 90H2.35547V72.8672H7.60547C10.2695 72.8672 12.3398 73.6055 13.8164 75.082C15.293 76.5586 16.0312 78.6211 16.0312 81.2695ZM13.9219 81.3398C13.9219 79.1055 13.3594 77.4219 12.2344 76.2891C11.1172 75.1562 9.45312 74.5898 7.24219 74.5898H4.34766V88.2773H6.77344C9.14844 88.2773 10.9336 87.6953 12.1289 86.5312C13.3242 85.3594 13.9219 83.6289 13.9219 81.3398ZM30.6328 90L28.5 84.5508H21.6328L19.5234 90H17.5078L24.2812 72.7969H25.957L32.6953 90H30.6328ZM27.8789 82.7578L25.8867 77.4492C25.6289 76.7773 25.3633 75.9531 25.0898 74.9766C24.918 75.7266 24.6719 76.5508 24.3516 77.4492L22.3359 82.7578H27.8789ZM44.7188 85.4414C44.7188 86.9492 44.1719 88.125 43.0781 88.9688C41.9844 89.8125 40.5 90.2344 38.625 90.2344C36.5938 90.2344 35.0312 89.9727 33.9375 89.4492V87.5273C34.6406 87.8242 35.4062 88.0586 36.2344 88.2305C37.0625 88.4023 37.8828 88.4883 38.6953 88.4883C40.0234 88.4883 41.0234 88.2383 41.6953 87.7383C42.3672 87.2305 42.7031 86.5273 42.7031 85.6289C42.7031 85.0352 42.582 84.5508 42.3398 84.1758C42.1055 83.793 41.707 83.4414 41.1445 83.1211C40.5898 82.8008 39.7422 82.4375 38.6016 82.0312C37.0078 81.4609 35.8672 80.7852 35.1797 80.0039C34.5 79.2227 34.1602 78.2031 34.1602 76.9453C34.1602 75.625 34.6562 74.5742 35.6484 73.793C36.6406 73.0117 37.9531 72.6211 39.5859 72.6211C41.2891 72.6211 42.8555 72.9336 44.2852 73.5586L43.6641 75.293C42.25 74.6992 40.875 74.4023 39.5391 74.4023C38.4844 74.4023 37.6602 74.6289 37.0664 75.082C36.4727 75.5352 36.1758 76.1641 36.1758 76.9688C36.1758 77.5625 36.2852 78.0508 36.5039 78.4336C36.7227 78.8086 37.0898 79.1562 37.6055 79.4766C38.1289 79.7891 38.9258 80.1367 39.9961 80.5195C41.793 81.1602 43.0273 81.8477 43.6992 82.582C44.3789 83.3164 44.7188 84.2695 44.7188 85.4414ZM61.2305 90H59.2383V81.9375H50.2148V90H48.2227V72.8672H50.2148V80.1562H59.2383V72.8672H61.2305V90ZM74.168 90H72.1758V72.8672H81.7266V74.6367H74.168V80.9062H81.2695V82.6758H74.168V90ZM95.3438 90L93.2109 84.5508H86.3438L84.2344 90H82.2188L88.9922 72.7969H90.668L97.4062 90H95.3438ZM92.5898 82.7578L90.5977 77.4492C90.3398 76.7773 90.0742 75.9531 89.8008 74.9766C89.6289 75.7266 89.3828 76.5508 89.0625 77.4492L87.0469 82.7578H92.5898ZM107.344 90L101.531 74.8125H101.438C101.547 76.0156 101.602 77.4453 101.602 79.1016V90H99.7617V72.8672H102.762L108.188 87H108.281L113.754 72.8672H116.73V90H114.738V78.9609C114.738 77.6953 114.793 76.3203 114.902 74.8359H114.809L108.949 90H107.344ZM121.441 90V72.8672H123.434V90H121.441ZM128.145 90V72.8672H130.137V88.1953H137.695V90H128.145ZM144.973 81.4336L149.543 72.8672H151.699L145.98 83.3555V90H143.965V83.4492L138.258 72.8672H140.438L144.973 81.4336Z" fill="url(#paint0_linear)"/>
<path d="M91.0555 5.89304H87.9912C86.8865 5.89304 85.9911 6.78852 85.9911 7.89316V19.0315C85.9911 20.1362 86.8865 21.0317 87.9912 21.0317H91.0555C92.1603 21.0317 93.0556 20.1362 93.0556 19.0315V7.89316C93.0556 6.78852 92.1603 5.89304 91.0555 5.89304Z" fill="url(#paint1_linear)"/>
<path d="M79.5974 62.7142V52.1622H92.5866L81.3203 63.4288C81.1791 63.5701 80.9992 63.6662 80.8033 63.7051C80.6075 63.7439 80.4044 63.724 80.22 63.6475C80.0355 63.571 79.8778 63.4414 79.767 63.2752C79.6562 63.1093 79.5971 62.914 79.5974 62.7142Z" fill="url(#paint2_linear)"/>
<path d="M93.2825 51.5066H79.5974V52.7714H91.952L93.2825 51.5066Z" fill="#261D56"/>
<path d="M96.096 20.2642L77.403 1.56952C76.8975 1.06648 76.2133 0.784088 75.5001 0.784088C74.787 0.784088 74.1028 1.06648 73.5973 1.56952L54.9046 20.2642C53.7639 21.5328 53.0918 23.1537 53 24.8573V28.1502C63.2125 35.7483 75.607 39.8423 88.3358 39.8218C91.573 39.8224 94.8049 39.5593 97.9994 39.0351V24.8573C97.9066 23.1541 97.2352 21.5337 96.096 20.2642Z" fill="url(#paint3_linear)"/>
<path d="M88.3364 42.8496C75.6076 42.8698 63.2131 38.7758 53.0006 31.178V48.9659C53.0029 49.6791 53.2872 50.3621 53.7913 50.8662C54.2955 51.3705 54.9787 51.6547 55.6917 51.657H95.3092C96.0221 51.6547 96.7051 51.3702 97.2095 50.8662C97.7135 50.3618 97.9977 49.6788 98 48.9659V42.0629C94.8055 42.5871 91.5736 42.8502 88.3364 42.8496Z" fill="url(#paint4_linear)"/>
<defs>
<linearGradient id="paint0_linear" x1="80" y1="64" x2="80" y2="97" gradientUnits="userSpaceOnUse">
<stop stop-color="#261D56"/>
<stop offset="1" stop-color="#A363B4"/>
</linearGradient>
<linearGradient id="paint1_linear" x1="89.5234" y1="5.89304" x2="89.5234" y2="21.0317" gradientUnits="userSpaceOnUse">
<stop stop-color="#392A86"/>
<stop offset="1" stop-color="#4F58A4" stop-opacity="0.67"/>
</linearGradient>
<linearGradient id="paint2_linear" x1="86.092" y1="52.1622" x2="86.092" y2="63.7244" gradientUnits="userSpaceOnUse">
<stop stop-color="#392A86"/>
<stop offset="1" stop-color="#4F58A4" stop-opacity="0.67"/>
</linearGradient>
<linearGradient id="paint3_linear" x1="75.4997" y1="0.784088" x2="75.4997" y2="39.8219" gradientUnits="userSpaceOnUse">
<stop stop-color="#392A86"/>
<stop offset="1" stop-color="#4F58A4" stop-opacity="0.67"/>
</linearGradient>
<linearGradient id="paint4_linear" x1="75.5003" y1="31.178" x2="75.5003" y2="51.657" gradientUnits="userSpaceOnUse">
<stop stop-color="#392A86"/>
<stop offset="1" stop-color="#4F58A4" stop-opacity="0.67"/>
</linearGradient>
</defs>
</svg>
