<svg width="897" height="813" viewBox="0 0 897 813" fill="none" xmlns="http://www.w3.org/2000/svg">
<path fill-rule="evenodd" clip-rule="evenodd" d="M496.104 66.7425C578.507 47.0546 657.963 -20.0429 738.506 6.24153C817.72 32.0925 874.79 115.467 893.92 196.567C912.323 274.586 840.909 346.041 837.551 426.13C834.428 500.61 897.694 571.631 875.211 642.705C852.219 715.387 789.382 776.365 718.161 803.548C648.995 829.948 574.419 791.014 500.577 785.697C433.229 780.848 364.853 797.809 301.832 773.569C233.83 747.414 178.797 698.333 130.838 643.486C75.4972 580.197 12.3839 514.823 2.57234 431.326C-7.47673 345.807 17.9222 250.949 77.3946 188.68C135.255 128.099 230.585 131.801 311.016 108.377C372.784 90.3893 433.531 81.6923 496.104 66.7425Z" fill="url(#paint0_linear)"/>
<defs>
<linearGradient id="paint0_linear" x1="725" y1="-58.5" x2="-36.5" y2="752.5" gradientUnits="userSpaceOnUse">
<stop stop-color="#1D1F56"/>
<stop offset="1" stop-color="#8B4BF2" stop-opacity="0.39"/>
</linearGradient>
</defs>
</svg>
