<svg width="238" height="200" viewBox="0 0 238 200" fill="none" xmlns="http://www.w3.org/2000/svg">
<g clip-path="url(#clip0)">
<circle cx="5" cy="5" r="5" fill="#D2D6DB"/>
<circle cx="24" cy="5" r="5" fill="#D2D6DB"/>
<circle cx="43" cy="5" r="5" fill="#D2D6DB"/>
<circle cx="62" cy="5" r="5" fill="#D2D6DB"/>
<circle cx="81" cy="5" r="5" fill="#D2D6DB"/>
<circle cx="100" cy="5" r="5" fill="#D2D6DB"/>
<circle cx="119" cy="5" r="5" fill="#D2D6DB"/>
<circle cx="138" cy="5" r="5" fill="#D2D6DB"/>
<circle cx="157" cy="5" r="5" fill="#D2D6DB"/>
<circle cx="176" cy="5" r="5" fill="#D2D6DB"/>
<circle cx="195" cy="5" r="5" fill="#D2D6DB"/>
<circle cx="214" cy="5" r="5" fill="#D2D6DB"/>
<circle cx="233" cy="5" r="5" fill="#D2D6DB"/>
<circle cx="5" cy="24" r="5" fill="#D2D6DB"/>
<circle cx="24" cy="24" r="5" fill="#D2D6DB"/>
<circle cx="43" cy="24" r="5" fill="#D2D6DB"/>
<circle cx="62" cy="24" r="5" fill="#D2D6DB"/>
<circle cx="81" cy="24" r="5" fill="#D2D6DB"/>
<circle cx="100" cy="24" r="5" fill="#D2D6DB"/>
<circle cx="119" cy="24" r="5" fill="#D2D6DB"/>
<circle cx="138" cy="24" r="5" fill="#D2D6DB"/>
<circle cx="157" cy="24" r="5" fill="#D2D6DB"/>
<circle cx="176" cy="24" r="5" fill="#D2D6DB"/>
<circle cx="195" cy="24" r="5" fill="#D2D6DB"/>
<circle cx="214" cy="24" r="5" fill="#D2D6DB"/>
<circle cx="233" cy="24" r="5" fill="#D2D6DB"/>
<circle cx="5" cy="43" r="5" fill="#D2D6DB"/>
<circle cx="24" cy="43" r="5" fill="#D2D6DB"/>
<circle cx="43" cy="43" r="5" fill="#D2D6DB"/>
<circle cx="62" cy="43" r="5" fill="#D2D6DB"/>
<circle cx="81" cy="43" r="5" fill="#D2D6DB"/>
<circle cx="100" cy="43" r="5" fill="#D2D6DB"/>
<circle cx="119" cy="43" r="5" fill="#D2D6DB"/>
<circle cx="138" cy="43" r="5" fill="#D2D6DB"/>
<circle cx="157" cy="43" r="5" fill="#D2D6DB"/>
<circle cx="176" cy="43" r="5" fill="#D2D6DB"/>
<circle cx="195" cy="43" r="5" fill="#D2D6DB"/>
<circle cx="214" cy="43" r="5" fill="#D2D6DB"/>
<circle cx="233" cy="43" r="5" fill="#D2D6DB"/>
<circle cx="5" cy="62" r="5" fill="#D2D6DB"/>
<circle cx="24" cy="62" r="5" fill="#D2D6DB"/>
<circle cx="43" cy="62" r="5" fill="#D2D6DB"/>
<circle cx="62" cy="62" r="5" fill="#D2D6DB"/>
<circle cx="81" cy="62" r="5" fill="#D2D6DB"/>
<circle cx="100" cy="62" r="5" fill="#D2D6DB"/>
<circle cx="119" cy="62" r="5" fill="#D2D6DB"/>
<circle cx="138" cy="62" r="5" fill="#D2D6DB"/>
<circle cx="157" cy="62" r="5" fill="#D2D6DB"/>
<circle cx="176" cy="62" r="5" fill="#D2D6DB"/>
<circle cx="195" cy="62" r="5" fill="#D2D6DB"/>
<circle cx="214" cy="62" r="5" fill="#D2D6DB"/>
<circle cx="233" cy="62" r="5" fill="#D2D6DB"/>
<circle cx="5" cy="81" r="5" fill="#D2D6DB"/>
<circle cx="24" cy="81" r="5" fill="#D2D6DB"/>
<circle cx="43" cy="81" r="5" fill="#D2D6DB"/>
<circle cx="62" cy="81" r="5" fill="#D2D6DB"/>
<circle cx="81" cy="81" r="5" fill="#D2D6DB"/>
<circle cx="100" cy="81" r="5" fill="#D2D6DB"/>
<circle cx="119" cy="81" r="5" fill="#D2D6DB"/>
<circle cx="138" cy="81" r="5" fill="#D2D6DB"/>
<circle cx="157" cy="81" r="5" fill="#D2D6DB"/>
<circle cx="176" cy="81" r="5" fill="#D2D6DB"/>
<circle cx="195" cy="81" r="5" fill="#D2D6DB"/>
<circle cx="214" cy="81" r="5" fill="#D2D6DB"/>
<circle cx="233" cy="81" r="5" fill="#D2D6DB"/>
<circle cx="5" cy="100" r="5" fill="#D2D6DB"/>
<circle cx="24" cy="100" r="5" fill="#D2D6DB"/>
<circle cx="43" cy="100" r="5" fill="#D2D6DB"/>
<circle cx="62" cy="100" r="5" fill="#D2D6DB"/>
<circle cx="81" cy="100" r="5" fill="#D2D6DB"/>
<circle cx="100" cy="100" r="5" fill="#D2D6DB"/>
<circle cx="119" cy="100" r="5" fill="#D2D6DB"/>
<circle cx="138" cy="100" r="5" fill="#D2D6DB"/>
<circle cx="157" cy="100" r="5" fill="#D2D6DB"/>
<circle cx="176" cy="100" r="5" fill="#D2D6DB"/>
<circle cx="195" cy="100" r="5" fill="#D2D6DB"/>
<circle cx="214" cy="100" r="5" fill="#D2D6DB"/>
<circle cx="233" cy="100" r="5" fill="#D2D6DB"/>
<circle cx="5" cy="119" r="5" fill="#D2D6DB"/>
<circle cx="24" cy="119" r="5" fill="#D2D6DB"/>
<circle cx="43" cy="119" r="5" fill="#D2D6DB"/>
<circle cx="62" cy="119" r="5" fill="#D2D6DB"/>
<circle cx="81" cy="119" r="5" fill="#D2D6DB"/>
<circle cx="100" cy="119" r="5" fill="#D2D6DB"/>
<circle cx="119" cy="119" r="5" fill="#D2D6DB"/>
<circle cx="138" cy="119" r="5" fill="#D2D6DB"/>
<circle cx="157" cy="119" r="5" fill="#D2D6DB"/>
<circle cx="176" cy="119" r="5" fill="#D2D6DB"/>
<circle cx="195" cy="119" r="5" fill="#D2D6DB"/>
<circle cx="214" cy="119" r="5" fill="#D2D6DB"/>
<circle cx="233" cy="119" r="5" fill="#D2D6DB"/>
<circle cx="5" cy="138" r="5" fill="#D2D6DB"/>
<circle cx="24" cy="138" r="5" fill="#D2D6DB"/>
<circle cx="43" cy="138" r="5" fill="#D2D6DB"/>
<circle cx="62" cy="138" r="5" fill="#D2D6DB"/>
<circle cx="81" cy="138" r="5" fill="#D2D6DB"/>
<circle cx="100" cy="138" r="5" fill="#D2D6DB"/>
<circle cx="119" cy="138" r="5" fill="#D2D6DB"/>
<circle cx="138" cy="138" r="5" fill="#D2D6DB"/>
<circle cx="157" cy="138" r="5" fill="#D2D6DB"/>
<circle cx="176" cy="138" r="5" fill="#D2D6DB"/>
<circle cx="195" cy="138" r="5" fill="#D2D6DB"/>
<circle cx="214" cy="138" r="5" fill="#D2D6DB"/>
<circle cx="233" cy="138" r="5" fill="#D2D6DB"/>
<circle cx="5" cy="157" r="5" fill="#D2D6DB"/>
<circle cx="24" cy="157" r="5" fill="#D2D6DB"/>
<circle cx="43" cy="157" r="5" fill="#D2D6DB"/>
<circle cx="62" cy="157" r="5" fill="#D2D6DB"/>
<circle cx="81" cy="157" r="5" fill="#D2D6DB"/>
<circle cx="100" cy="157" r="5" fill="#D2D6DB"/>
<circle cx="119" cy="157" r="5" fill="#D2D6DB"/>
<circle cx="138" cy="157" r="5" fill="#D2D6DB"/>
<circle cx="157" cy="157" r="5" fill="#D2D6DB"/>
<circle cx="176" cy="157" r="5" fill="#D2D6DB"/>
<circle cx="195" cy="157" r="5" fill="#D2D6DB"/>
<circle cx="214" cy="157" r="5" fill="#D2D6DB"/>
<circle cx="233" cy="157" r="5" fill="#D2D6DB"/>
<circle cx="5" cy="176" r="5" fill="#D2D6DB"/>
<circle cx="24" cy="176" r="5" fill="#D2D6DB"/>
<circle cx="43" cy="176" r="5" fill="#D2D6DB"/>
<circle cx="62" cy="176" r="5" fill="#D2D6DB"/>
<circle cx="81" cy="176" r="5" fill="#D2D6DB"/>
<circle cx="100" cy="176" r="5" fill="#D2D6DB"/>
<circle cx="119" cy="176" r="5" fill="#D2D6DB"/>
<circle cx="138" cy="176" r="5" fill="#D2D6DB"/>
<circle cx="157" cy="176" r="5" fill="#D2D6DB"/>
<circle cx="176" cy="176" r="5" fill="#D2D6DB"/>
<circle cx="195" cy="176" r="5" fill="#D2D6DB"/>
<circle cx="214" cy="176" r="5" fill="#D2D6DB"/>
<circle cx="233" cy="176" r="5" fill="#D2D6DB"/>
<circle cx="5" cy="195" r="5" fill="#D2D6DB"/>
<circle cx="24" cy="195" r="5" fill="#D2D6DB"/>
<circle cx="43" cy="195" r="5" fill="#D2D6DB"/>
<circle cx="62" cy="195" r="5" fill="#D2D6DB"/>
<circle cx="81" cy="195" r="5" fill="#D2D6DB"/>
<circle cx="100" cy="195" r="5" fill="#D2D6DB"/>
<circle cx="119" cy="195" r="5" fill="#D2D6DB"/>
<circle cx="138" cy="195" r="5" fill="#D2D6DB"/>
<circle cx="157" cy="195" r="5" fill="#D2D6DB"/>
<circle cx="176" cy="195" r="5" fill="#D2D6DB"/>
<circle cx="195" cy="195" r="5" fill="#D2D6DB"/>
<circle cx="214" cy="195" r="5" fill="#D2D6DB"/>
<circle cx="233" cy="195" r="5" fill="#D2D6DB"/>
</g>
<defs>
<clipPath id="clip0">
<rect width="238" height="200" fill="white"/>
</clipPath>
</defs>
</svg>
