<svg width="229" height="76" viewBox="0 0 229 76" fill="none" xmlns="http://www.w3.org/2000/svg">
<path d="M221.868 46.4468L228.22 50.7304C226.158 53.8021 221.227 59.072 212.701 59.072C202.113 59.072 194.228 50.7867 194.228 40.247C194.228 29.0309 202.197 21.422 211.809 21.422C221.478 21.422 226.214 29.2 227.747 33.399L228.582 35.5407L203.673 45.9678C205.568 49.744 208.521 51.6603 212.701 51.6603C216.88 51.6603 219.778 49.5749 221.868 46.4468ZM202.336 39.6552L218.97 32.6663C218.05 30.3272 215.32 28.6645 212.06 28.6645C207.909 28.6645 202.141 32.3845 202.336 39.6552Z" fill="#969696"/>
<path d="M182.219 2.23059H190.244V57.3528H182.219V2.23059Z" fill="#969696"/>
<path d="M169.57 22.8874H177.315V56.3666C177.315 70.2598 169.207 75.9806 159.623 75.9806C150.595 75.9806 145.162 69.8371 143.128 64.8491L150.233 61.8619C151.515 64.9336 154.607 68.569 159.623 68.569C165.78 68.569 169.57 64.7082 169.57 57.4938V54.7884H169.291C167.452 57.0429 163.941 59.0719 159.483 59.0719C150.177 59.0719 141.651 50.8712 141.651 40.3033C141.651 29.679 150.177 21.3938 159.483 21.3938C163.913 21.3938 167.452 23.3947 169.291 25.5928H169.57V22.8874ZM170.127 40.3033C170.127 33.6526 165.752 28.8054 160.18 28.8054C154.552 28.8054 149.815 33.6526 149.815 40.3033C149.815 46.8695 154.552 51.6321 160.18 51.6321C165.752 51.6603 170.127 46.8695 170.127 40.3033Z" fill="#A6A8AB"/>
<path d="M97.6007 40.1624C97.6007 51.0121 89.242 58.9874 78.9886 58.9874C68.7352 58.9874 60.3765 50.9839 60.3765 40.1624C60.3765 29.2563 68.7352 21.3092 78.9886 21.3092C89.242 21.3092 97.6007 29.2563 97.6007 40.1624ZM89.4649 40.1624C89.4649 33.3989 84.6168 28.749 78.9886 28.749C73.3604 28.749 68.5123 33.3989 68.5123 40.1624C68.5123 46.8695 73.3604 51.5757 78.9886 51.5757C84.6168 51.5757 89.4649 46.8695 89.4649 40.1624Z" fill="#969696"/>
<path d="M138.252 40.247C138.252 51.0967 129.893 59.072 119.64 59.072C109.387 59.072 101.028 51.0967 101.028 40.247C101.028 29.3409 109.387 21.422 119.64 21.422C129.893 21.422 138.252 29.3127 138.252 40.247ZM130.088 40.247C130.088 33.4835 125.24 28.8336 119.612 28.8336C113.984 28.8336 109.136 33.4835 109.136 40.247C109.136 46.9541 113.984 51.6603 119.612 51.6603C125.268 51.6603 130.088 46.9259 130.088 40.247Z" fill="#969696"/>
<path d="M29.7836 50.8149C18.1093 50.8149 8.97037 41.2897 8.97037 29.4818C8.97037 17.6739 18.1093 8.14869 29.7836 8.14869C36.0805 8.14869 40.6778 10.6568 44.0771 13.8695L49.6774 8.20505C44.9408 3.61152 38.616 0.117065 29.7836 0.117065C13.7906 0.117065 0.333008 13.3058 0.333008 29.4818C0.333008 45.6578 13.7906 58.8465 29.7836 58.8465C38.421 58.8465 44.9408 55.972 50.0396 50.6176C55.2778 45.3196 56.8938 37.8798 56.8938 31.849C56.8938 29.9609 56.6709 28.0164 56.4201 26.5791H29.7836V34.4135H48.758C48.2007 39.317 46.6683 42.6706 44.4114 44.9532C41.6809 47.7432 37.3622 50.8149 29.7836 50.8149Z" fill="#A6A8AB"/>
</svg>
