<svg width="909" height="636" viewBox="0 0 909 636" fill="none" xmlns="http://www.w3.org/2000/svg">
<path d="M802.738 620.012L787.53 620.01L780.296 561.37L802.739 561.371L802.738 620.012Z" fill="#FFB8B8"/>
<path d="M806.615 634.748L757.581 634.747V634.126C757.581 629.066 759.592 624.214 763.171 620.635C766.75 617.056 771.605 615.046 776.666 615.046H776.667L806.616 615.047L806.615 634.748Z" fill="#2F2E41"/>
<path d="M869.856 582.634L859.985 594.199L810.668 561.637L825.237 544.57L869.856 582.634Z" fill="#FFB8B8"/>
<path d="M883.587 589.252L851.758 626.541L851.286 626.138C847.435 622.854 845.048 618.174 844.649 613.131C844.249 608.085 845.871 603.088 849.156 599.239V599.238L868.597 576.463L883.587 589.252Z" fill="#2F2E41"/>
<path d="M694.757 331.624L690.024 375.269L881.387 372.541L797.932 236.598L729.793 234.151L694.757 331.624Z" fill="#2F2E41"/>
<path opacity="0.28" d="M694.757 331.624L690.024 375.269L881.387 372.541L797.932 236.598L729.793 234.151L694.757 331.624Z" fill="black"/>
<path d="M732.388 339.117L725.632 379.052V414.748L780.101 432.523C780.101 432.523 773.724 571.173 782.225 580.004L782.017 601.322L805.779 602.402L805.972 587.399L816.047 475.256L821.98 392.922L812.361 330.497L732.388 339.117Z" fill="#2F2E41"/>
<path d="M774.588 373.494L725.632 414.748C725.632 414.748 722.766 489.18 730.042 497.91C736.292 505.407 817.571 570.074 817.571 570.074C817.571 570.074 832.017 583.32 840.112 583.533C848.208 583.743 857.624 566.768 857.624 566.768L838.874 552.527C838.874 552.527 790.303 507.202 775.882 489.18C770.061 481.906 770.061 481.178 770.061 481.178L772.049 450.929L792.058 394.789L774.588 373.494Z" fill="#2F2E41"/>
<path d="M722.612 175.883L701.504 173.932L682.359 177.122L641.818 177.135L638.364 206.509L675.361 214.786L684.376 210.37L721.958 224.683L722.612 175.883Z" fill="#2F2E41"/>
<path d="M747.822 175.791C747.822 175.791 792.616 171.595 802.803 179.596C812.991 187.597 834.818 346.172 834.818 346.172L747.822 351.081L732.225 340.353L736.652 261.187L747.822 175.791Z" fill="#CCCCCC"/>
<path d="M761.495 174.803L712.082 175.887L666.012 383.998L702.393 391.999L761.495 174.803Z" fill="#2F2E41"/>
<path d="M796.622 173.044L835.545 185.222L833.335 270.729L881.387 372.957L824.897 378.906L780.248 268.518L796.622 173.044Z" fill="#2F2E41"/>
<path d="M860.807 383.341C862.171 382.14 863.256 380.655 863.984 378.989C864.712 377.325 865.066 375.52 865.021 373.703C864.977 371.886 864.534 370.1 863.724 368.474C862.914 366.846 861.757 365.416 860.336 364.284L868.166 336.975L852.727 328.17L842.21 366.891C840.465 369.406 839.705 372.473 840.071 375.511C840.439 378.549 841.907 381.346 844.2 383.374C846.492 385.402 849.448 386.519 852.509 386.513C855.57 386.506 858.523 385.378 860.807 383.341Z" fill="#FFB8B8"/>
<path d="M812.991 187.597L836.021 185.601C836.021 185.601 856.698 207.22 861.401 223.959C866.105 240.698 871.2 293.071 871.2 293.071L869.075 369.689L842.153 351.411L840.347 285.511L812.991 187.597Z" fill="#2F2E41"/>
<path d="M807.434 149.088C816.083 133.271 810.269 113.44 794.447 104.794C778.625 96.1474 758.789 101.96 750.141 117.777C741.491 133.594 747.307 153.425 763.128 162.072C778.949 170.718 798.785 164.905 807.434 149.088Z" fill="#FFB8B8"/>
<path d="M775.147 119.806C770.864 118.817 766.417 119.914 762.079 120.624C757.74 121.335 752.959 121.569 749.289 119.149C746.579 117.362 744.913 114.406 743.347 111.562C742.695 110.546 742.26 109.406 742.07 108.213C741.885 106.11 743.224 104.191 744.645 102.629C751.247 95.3748 760.894 91.4042 770.622 90.1429C778.646 88.9475 786.843 89.9482 794.343 93.0387C801.728 96.2769 808.077 102.207 810.979 109.728C812.318 113.578 813.152 117.584 813.465 121.647C813.903 124.636 813.96 127.669 813.632 130.673C813.242 132.9 812.656 135.087 811.882 137.212L807.073 151.731C806.727 153.103 806.081 154.381 805.182 155.473C804.72 156.008 804.096 156.379 803.406 156.53C802.715 156.682 801.994 156.605 801.35 156.312C801.735 154.736 801.794 153.097 801.522 151.497C801.372 150.699 800.987 149.965 800.415 149.388C799.843 148.811 799.112 148.419 798.315 148.262C796.543 148.074 795.028 149.449 793.346 150.039C792.576 150.268 791.769 150.342 790.971 150.259C790.172 150.174 789.398 149.934 788.692 149.552C787.988 149.168 787.364 148.651 786.859 148.028C786.353 147.404 785.976 146.686 785.748 145.918C785.702 145.763 785.663 145.606 785.628 145.447C785.363 143.788 785.809 142.011 785.179 140.451C784.442 138.625 782.487 137.669 781.018 136.356C779.677 135.12 778.717 133.526 778.253 131.763C777.787 130 777.835 128.14 778.389 126.404C778.783 125.195 779.893 124.646 779.671 123.258C779.38 121.437 776.694 120.164 775.147 119.806Z" fill="#2F2E41"/>
<path d="M412.178 238.846C412.178 249.299 403.699 257.774 393.241 257.774H18.9375C8.47862 257.774 0 249.299 0 238.846V18.9286C0 8.47464 8.47861 0 18.9375 0H393.241C403.699 0 412.178 8.47461 412.178 18.9286V238.846Z" fill="#2F2E41"/>
<path d="M382.538 596.116C382.538 609.78 371.435 620.857 357.741 620.857H99.2842C85.5898 620.857 74.4875 609.78 74.4875 596.116V308.669C74.4875 295.004 85.5898 283.929 99.2842 283.929H357.741C371.435 283.929 382.538 295.004 382.538 308.669V596.116Z" fill="#2F2E41"/>
<path d="M354.763 581.738H289.113V584.262H354.763V581.738Z" fill="white"/>
<path d="M354.763 572.905H289.113V575.429H354.763V572.905Z" fill="white"/>
<path d="M232.3 339.452V363.846C246.72 363.846 260.816 368.138 272.806 376.179C284.796 384.221 294.141 395.651 299.659 409.022C305.178 422.395 306.622 437.109 303.809 451.305C300.996 465.502 294.051 478.541 283.854 488.775L301.041 506.024C314.635 492.378 323.893 474.991 327.644 456.065C331.395 437.135 329.471 417.518 322.113 399.687C314.755 381.857 302.296 366.619 286.309 355.898C270.321 345.175 251.527 339.452 232.3 339.452Z" fill="#E6E6E6"/>
<path d="M303 506.718L285.821 489.619C273.36 502.025 256.806 509.514 239.222 510.7C221.638 511.887 204.22 506.691 190.191 496.074L175.488 515.33C194.195 529.484 217.423 536.409 240.867 534.825C264.309 533.242 286.384 523.256 303 506.718Z" fill="#575A89"/>
<path d="M159.391 437.107C159.391 427.49 161.276 417.966 164.939 409.081C168.604 400.194 173.974 392.119 180.746 385.318C187.515 378.517 195.552 373.123 204.399 369.442C213.244 365.761 222.726 363.866 232.3 363.866V339.452C211.95 339.452 192.113 345.868 175.583 357.795C159.056 369.722 146.671 386.558 140.174 405.931C133.677 425.305 133.397 446.239 139.371 465.779C145.347 485.322 157.276 502.488 173.479 514.857L188.188 495.414C179.232 488.589 171.97 479.775 166.974 469.658C161.979 459.543 159.382 448.401 159.391 437.107Z" fill="#6C63FF"/>
<path d="M710.019 435.94C710.019 446.395 701.541 454.869 691.081 454.869H493.696C483.236 454.869 474.758 446.395 474.758 435.94V216.023C474.758 205.568 483.236 197.094 493.696 197.094H691.081C701.541 197.094 710.019 205.568 710.019 216.023V435.94Z" fill="#2F2E41"/>
<path d="M550.983 354.676H508.636V422.411H550.983V354.676Z" fill="#8066B8"/>
<path d="M612.151 308.577H569.803V422.411H612.151V308.577Z" fill="#8066B8"/>
<path d="M673.319 254.953H630.971V422.411H673.319V254.953Z" fill="#2BC4A9"/>
<path d="M687.434 424.294H497.343V227.669H499.224V422.413H687.434V424.294Z" fill="white"/>
<path d="M641.604 203.957C648.762 203.957 654.565 198.156 654.565 190.999C654.565 183.843 648.762 178.042 641.604 178.042C634.445 178.042 628.643 183.843 628.643 190.999C628.643 198.156 634.445 203.957 641.604 203.957Z" fill="#FFB8B8"/>
<path d="M907.919 636H705.942C705.655 636 705.38 635.886 705.178 635.683C704.975 635.481 704.861 635.206 704.861 634.92C704.861 634.633 704.975 634.359 705.178 634.156C705.38 633.954 705.655 633.841 705.942 633.841H907.919C908.206 633.841 908.481 633.954 908.683 634.156C908.886 634.359 909 634.633 909 634.92C909 635.206 908.886 635.481 908.683 635.683C908.481 635.886 908.206 636 907.919 636Z" fill="#CCCCCC"/>
<path d="M354.937 203.864H57.2418C56.9947 203.864 56.7577 203.766 56.583 203.591C56.4083 203.417 56.3102 203.179 56.3102 202.933V60.2875C56.3102 60.0404 56.4083 59.8035 56.583 59.6288C56.7577 59.4541 56.9947 59.3561 57.2418 59.3561C57.4889 59.3561 57.7258 59.4541 57.9006 59.6288C58.0753 59.8035 58.1734 60.0404 58.1734 60.2875V202.001H354.937C355.059 202.001 355.18 202.025 355.294 202.071C355.408 202.118 355.51 202.186 355.597 202.273C355.684 202.359 355.754 202.463 355.8 202.576C355.847 202.688 355.871 202.81 355.871 202.933C355.871 203.056 355.847 203.177 355.8 203.29C355.754 203.403 355.684 203.506 355.597 203.592C355.51 203.679 355.408 203.747 355.294 203.794C355.18 203.84 355.059 203.864 354.937 203.864Z" fill="white"/>
<path d="M120.846 193.619H93.7697C93.0364 193.618 92.3334 193.326 91.8151 192.808C91.2966 192.29 91.0049 191.587 91.004 190.854V153.54C91.0049 152.807 91.2966 152.104 91.8151 151.585C92.3334 151.068 93.0364 150.776 93.7697 150.775H120.846C121.579 150.776 122.282 151.068 122.801 151.585C123.319 152.104 123.611 152.807 123.612 153.54V190.854C123.611 191.587 123.319 192.29 122.801 192.808C122.282 193.326 121.579 193.618 120.846 193.619Z" fill="#2BC4A9"/>
<path d="M170.223 193.619H143.147C142.414 193.618 141.711 193.326 141.193 192.808C140.674 192.29 140.382 191.587 140.381 190.854V118.147C140.382 117.414 140.674 116.711 141.193 116.193C141.711 115.674 142.414 115.383 143.147 115.382H170.223C170.956 115.383 171.66 115.674 172.178 116.193C172.696 116.711 172.988 117.414 172.989 118.147V190.854C172.988 191.587 172.696 192.29 172.178 192.808C171.66 193.326 170.956 193.618 170.223 193.619Z" fill="#2BC4A9"/>
<path d="M219.6 193.619H192.525C191.791 193.618 191.088 193.326 190.569 192.808C190.052 192.29 189.76 191.587 189.759 190.854V153.54C189.76 152.807 190.052 152.104 190.569 151.585C191.088 151.068 191.791 150.776 192.525 150.775H219.6C220.334 150.776 221.037 151.068 221.555 151.585C222.074 152.104 222.365 152.807 222.367 153.54V190.854C222.365 191.587 222.074 192.29 221.555 192.808C221.037 193.326 220.334 193.618 219.6 193.619Z" fill="#2BC4A9"/>
<path d="M268.978 193.619H241.901C241.186 193.634 240.492 193.365 239.974 192.871C239.455 192.376 239.154 191.696 239.136 190.979V104.051C239.154 103.334 239.455 102.654 239.974 102.16C240.492 101.665 241.186 101.396 241.901 101.411H268.978C269.695 101.396 270.388 101.665 270.906 102.16C271.425 102.654 271.727 103.334 271.744 104.051V190.979C271.727 191.696 271.425 192.376 270.906 192.871C270.388 193.365 269.695 193.634 268.978 193.619Z" fill="#2BC4A9"/>
<path d="M318.356 193.619H291.279C290.546 193.618 289.844 193.326 289.325 192.808C288.806 192.29 288.514 191.587 288.514 190.854V79.0285C288.514 78.2955 288.806 77.5928 289.325 77.0746C289.844 76.5563 290.546 76.2647 291.279 76.2639H318.356C319.089 76.2647 319.791 76.5563 320.31 77.0746C320.829 77.5928 321.121 78.2955 321.121 79.0285V190.854C321.121 191.587 320.829 192.29 320.31 192.808C319.791 193.326 319.089 193.618 318.356 193.619Z" fill="#2BC4A9"/>
<path d="M107.308 139.598C110.395 139.598 112.898 137.096 112.898 134.01C112.898 130.924 110.395 128.422 107.308 128.422C104.221 128.422 101.718 130.924 101.718 134.01C101.718 137.096 104.221 139.598 107.308 139.598Z" fill="white"/>
<path d="M156.685 103.274C159.772 103.274 162.275 100.772 162.275 97.6859C162.275 94.5995 159.772 92.0975 156.685 92.0975C153.598 92.0975 151.095 94.5995 151.095 97.6859C151.095 100.772 153.598 103.274 156.685 103.274Z" fill="white"/>
<path d="M206.063 139.598C209.15 139.598 211.653 137.096 211.653 134.01C211.653 130.924 209.15 128.422 206.063 128.422C202.976 128.422 200.472 130.924 200.472 134.01C200.472 137.096 202.976 139.598 206.063 139.598Z" fill="white"/>
<path d="M255.44 85.5777C258.527 85.5777 261.029 83.0757 261.029 79.9893C261.029 76.903 258.527 74.401 255.44 74.401C252.352 74.401 249.85 76.903 249.85 79.9893C249.85 83.0757 252.352 85.5777 255.44 85.5777Z" fill="white"/>
<path d="M304.818 65.0872C307.905 65.0872 310.407 62.5852 310.407 59.4989C310.407 56.4125 307.905 53.9105 304.818 53.9105C301.73 53.9105 299.228 56.4125 299.228 59.4989C299.228 62.5852 301.73 65.0872 304.818 65.0872Z" fill="white"/>
<path d="M206.18 135.262L156.685 98.1999L107.866 134.755L106.749 133.265L156.685 95.8719L205.944 132.757L254.896 79.2052L255.092 79.1254L304.468 59.2355L305.165 60.9643L255.984 80.7742L206.18 135.262Z" fill="white"/>
<path d="M354.763 590.571H289.113V593.095H354.763V590.571Z" fill="white"/>
</svg>
