<svg width="133" height="133" viewBox="0 0 133 133" fill="none" xmlns="http://www.w3.org/2000/svg">
<rect x="2.5" y="2.5" width="128" height="128" fill="black" stroke="url(#paint0_linear)" stroke-width="5"/>
<path d="M30.087 58V23.7H36.751C39.2337 23.7 41.1447 24.5003 42.484 26.101C43.8233 27.669 44.493 30.5273 44.493 34.676V47.024C44.493 51.1727 43.8233 54.0473 42.484 55.648C41.1447 57.216 39.2337 58 36.751 58H30.087ZM40.622 47.906V33.843C40.622 29.1717 39.3317 26.836 36.751 26.836H34.007V54.913H36.751C39.3317 54.913 40.622 52.5773 40.622 47.906ZM61.5083 58L59.9893 49.082H53.0803L51.6103 58H47.6903L53.9623 23.7H59.1562L65.4283 58H61.5083ZM56.5593 28.649L53.6193 45.946H59.4503L56.5593 28.649ZM79.8124 50.307C79.8124 47.6937 78.9304 45.6847 77.1664 44.28L73.2464 41.389C70.3064 39.2983 68.8364 36.2113 68.8364 32.128C68.8364 28.7307 69.4734 26.3623 70.7474 25.023C72.0541 23.651 73.8181 22.965 76.0394 22.965C78.2934 22.965 80.0411 23.602 81.2824 24.876C82.5238 26.1173 83.2751 28.3877 83.5364 31.687L79.8124 32.52C79.6818 28.3387 78.4568 26.248 76.1374 26.248C73.8508 26.248 72.7074 28.0283 72.7074 31.589C72.7074 33.157 72.8708 34.431 73.1974 35.411C73.5568 36.391 74.2264 37.273 75.2064 38.057L79.0774 40.948C79.9921 41.6013 80.7271 42.222 81.2824 42.81C81.8378 43.398 82.3604 44.3453 82.8504 45.652C83.3731 46.926 83.6344 48.445 83.6344 50.209C83.6344 53.345 82.9484 55.55 81.5764 56.824C80.2371 58.098 78.4078 58.735 76.0884 58.735C73.7691 58.735 71.9561 57.9837 70.6494 56.481C69.3428 54.9783 68.5424 52.2997 68.2484 48.445L71.9234 47.808C72.0541 50.5847 72.4461 52.561 73.0994 53.737C73.7854 54.913 74.7328 55.501 75.9414 55.501C78.5221 55.501 79.8124 53.7697 79.8124 50.307ZM100.12 58V42.467H92.7209V58H88.8009V23.7H92.7209V39.331H100.12V23.7H103.991V58H100.12Z" fill="white"/>
<path d="M35.622 97.307C35.622 94.6937 34.74 92.6847 32.976 91.28L29.056 88.389C26.116 86.2983 24.646 83.2113 24.646 79.128C24.646 75.7307 25.283 73.3623 26.557 72.023C27.8637 70.651 29.6277 69.965 31.849 69.965C34.103 69.965 35.8507 70.602 37.092 71.876C38.3333 73.1173 39.0847 75.3877 39.346 78.687L35.622 79.52C35.4913 75.3387 34.2663 73.248 31.947 73.248C29.6603 73.248 28.517 75.0283 28.517 78.589C28.517 80.157 28.6803 81.431 29.007 82.411C29.3663 83.391 30.036 84.273 31.016 85.057L34.887 87.948C35.8017 88.6013 36.5367 89.222 37.092 89.81C37.6473 90.398 38.17 91.3453 38.66 92.652C39.1827 93.926 39.444 95.445 39.444 97.209C39.444 100.345 38.758 102.55 37.386 103.824C36.0467 105.098 34.2173 105.735 31.898 105.735C29.5787 105.735 27.7657 104.984 26.459 103.481C25.1523 101.978 24.352 99.2997 24.058 95.445L27.733 94.808C27.8637 97.5847 28.2557 99.561 28.909 100.737C29.595 101.913 30.5423 102.501 31.751 102.501C34.3317 102.501 35.622 100.77 35.622 97.307ZM55.9294 105V89.467H48.5304V105H44.6104V70.7H48.5304V86.331H55.9294V70.7H59.8004V105H55.9294ZM80.6032 80.941V94.759C80.6032 98.9077 79.9336 101.782 78.5942 103.383C77.2876 104.951 75.3929 105.735 72.9102 105.735C70.4602 105.735 68.5656 104.951 67.2262 103.383C65.9196 101.782 65.2662 98.9077 65.2662 94.759V80.941C65.2662 76.7923 65.9196 73.934 67.2262 72.366C68.5656 70.7653 70.4602 69.965 72.9102 69.965C75.3929 69.965 77.2876 70.7653 78.5942 72.366C79.9336 73.934 80.6032 76.7923 80.6032 80.941ZM76.7322 95.494V80.206C76.7322 75.502 75.4746 73.15 72.9592 73.15C71.7506 73.15 70.8032 73.6563 70.1172 74.669C69.4639 75.6817 69.1372 77.5273 69.1372 80.206V95.494C69.1372 98.1727 69.4639 100.018 70.1172 101.031C70.8032 102.044 71.7506 102.55 72.9592 102.55C75.4746 102.55 76.7322 100.198 76.7322 95.494ZM101.239 105L97.1717 80.059L93.1047 105H89.0867L83.9417 70.7H87.8617L91.3897 96.964L95.7017 70.7H98.7397L102.905 96.915L106.482 70.7H110.402L105.257 105H101.239Z" fill="#A192DB" fill-opacity="0.859313"/>
<defs>
<linearGradient id="paint0_linear" x1="-65.5" y1="172.5" x2="183" y2="-7.50001" gradientUnits="userSpaceOnUse">
<stop stop-color="#D9D9D9" stop-opacity="0.85"/>
<stop offset="0.310417" stop-color="#A192DB" stop-opacity="0.859313"/>
<stop offset="0.716667" stop-color="#60438D" stop-opacity="0.8715"/>
<stop offset="1" stop-color="#16002C" stop-opacity="0.88"/>
</linearGradient>
</defs>
</svg>
