<svg width="231" height="119" viewBox="0 0 231 119" fill="none" xmlns="http://www.w3.org/2000/svg">
<path d="M0.436035 108.295H8.02288V78.4205L19.7683 104.464C21.1541 107.616 23.0512 108.731 26.7713 108.731C30.492 108.731 32.3157 107.616 33.7022 104.464L45.4471 78.4205V108.295H53.0345V78.4694C53.0345 75.5598 51.8667 74.153 49.4597 73.426C43.6966 71.6316 39.8299 73.1833 38.0789 77.0632L26.5526 102.766L15.3911 77.0632C13.7133 73.1833 9.77387 71.6316 4.01079 73.426C1.6032 74.153 0.436035 75.5598 0.436035 78.4694V108.295Z" fill="#A6A8AB"/>
<path d="M59.3428 83.9788H66.9274V100.437C66.8565 101.332 67.2151 103.43 71.3713 103.495C73.4917 103.528 87.7363 103.495 87.8692 103.495V83.8987H95.4715C95.5064 83.8987 95.4639 110.623 95.4644 110.737C95.5064 117.328 87.2631 118.759 83.4637 118.87H59.5076V113.781C59.5496 113.781 83.4459 113.785 83.5062 113.779C88.3891 113.265 87.8125 110.845 87.8119 110.03V108.046H71.6862C64.1837 107.977 59.406 104.712 59.3469 100.956C59.3416 100.608 59.5088 84.1432 59.3428 83.9788Z" fill="#A6A8AB"/>
<path d="M101.319 108.295H123.131C125.684 108.295 128.165 107.762 130.135 106.84C133.417 105.337 135.022 103.3 135.022 100.632V95.104C135.022 92.9214 133.199 90.8842 129.624 89.5269C127.727 88.7988 125.392 88.4112 123.131 88.4112H113.939C110.876 88.4112 109.416 87.4898 109.052 85.4532C108.978 85.2105 108.978 85.0161 108.978 84.774V81.3312C108.978 81.1368 108.978 80.9424 109.052 80.7003C109.416 79.1486 110.219 78.7115 112.918 78.4694C113.137 78.4694 113.428 78.4205 113.648 78.4205H135.314V73.3777H114.012C110.948 73.3777 109.343 73.5715 107.884 74.0074C103.361 75.4142 101.392 77.6452 101.392 81.5251V85.9381C101.392 89.3331 105.258 92.2427 111.75 92.9214C112.481 92.9697 113.21 93.018 113.939 93.018H121.818C122.11 93.018 122.402 93.018 122.62 93.0669C125.028 93.2613 126.049 93.6972 126.779 94.5703C127.216 95.0062 127.362 95.4434 127.362 95.9282V100.341C127.362 100.875 126.998 101.554 126.269 102.136C125.612 102.718 124.518 103.106 123.058 103.203C122.766 103.203 122.548 103.251 122.256 103.251H101.319V108.295Z" fill="#A6A8AB"/>
<path d="M182.352 99.517C182.352 104.706 186.218 107.616 194.024 108.198C194.753 108.246 195.483 108.295 196.212 108.295H215.982V103.251H196.066C191.616 103.251 189.939 102.136 189.939 99.4687V73.3777H182.352V99.517Z" fill="#A6A8AB"/>
<path d="M139.864 99.7814V81.8006C139.864 77.2327 143.081 74.4621 149.44 73.5873C150.099 73.4907 150.83 73.4418 151.488 73.4418H165.889C166.619 73.4418 167.278 73.4907 168.009 73.5873C174.369 74.4621 177.585 77.2327 177.585 81.8006V99.7814C177.585 103.487 176.219 105.471 173.071 106.764L180.544 113.49H171.735L165.689 108.048L159.602 108.432H151.488C150.099 108.432 148.637 108.237 147.028 107.8C142.204 106.488 139.864 103.961 139.864 99.7814ZM148.053 99.3443C148.053 99.5876 148.126 99.8303 148.199 100.122C148.638 102.211 150.611 103.378 153.608 103.378H160.501L154.17 97.6783H162.979L168.501 102.649C169.518 102.108 170.188 101.281 170.422 100.219C170.495 99.9764 170.495 99.7331 170.495 99.4904V82.2383C170.495 82.0439 170.495 81.8006 170.422 81.5573C169.983 79.6139 168.01 78.4963 165.086 78.4963H153.608C150.246 78.4963 148.053 79.9544 148.053 82.2383V99.3443Z" fill="#A6A8AB"/>
<path d="M222.657 65.0108C217.994 64.8847 214.431 65.3171 211.386 66.5978C210.52 66.9619 209.14 66.9713 208.999 68.0529C209.474 68.5501 209.548 69.2924 209.926 69.9039C210.654 71.0774 211.881 72.6497 212.977 73.4745C214.174 74.3752 215.407 75.339 216.69 76.119C218.973 77.5069 221.521 78.2993 223.718 79.6896C225.013 80.509 226.3 81.5411 227.564 82.466C228.188 82.9232 228.608 83.6342 229.42 83.9206C229.42 83.877 229.42 83.8328 229.42 83.7886C228.994 83.2472 228.884 82.5026 228.492 81.937C227.918 81.3644 227.343 80.7912 226.768 80.218C225.083 77.9871 222.943 76.0277 220.668 74.4C218.854 73.1016 214.794 71.3478 214.038 69.2429C213.993 69.1987 213.95 69.1545 213.905 69.1104C215.191 68.966 216.697 68.5018 217.884 68.1849C219.878 67.6517 221.66 67.7896 223.718 67.2594C224.647 66.9949 225.575 66.7298 226.503 66.4659C226.503 66.2891 226.503 66.1136 226.503 65.9368C225.462 64.8717 224.72 63.4626 223.585 62.4988C220.616 59.9774 217.375 57.4584 214.038 55.3579C212.187 54.1928 209.899 53.4358 207.938 52.4485C207.278 52.1166 206.119 51.944 205.683 51.3906C204.652 50.0806 204.091 48.4203 203.296 46.8945C201.632 43.6982 199.997 40.2073 198.522 36.8446C197.516 34.5515 196.859 32.2899 195.605 30.2327C189.584 20.3611 183.102 14.4027 173.061 8.54609C170.925 7.3006 168.353 6.80869 165.635 6.16609C164.176 6.07808 162.717 5.98948 161.259 5.90146C160.368 5.53039 159.442 4.44419 158.606 3.91782C155.28 1.82255 146.749 -2.73499 144.285 3.25678C142.73 7.0388 146.61 10.7294 147.998 12.6457C148.972 13.9902 150.219 15.4975 150.915 17.0093C151.373 18.0029 151.452 18.9994 151.844 20.051C152.808 22.641 153.646 25.4588 154.893 27.8527C155.524 29.0637 156.219 30.3397 157.015 31.423C157.504 32.0875 158.341 32.3803 158.474 33.4066C157.655 34.5492 157.608 36.3228 157.148 37.7703C155.075 44.2867 155.857 52.3864 158.872 57.2092C159.797 58.6896 161.976 61.8649 164.972 60.6472C167.592 59.5827 167.007 56.2843 167.757 53.3742C167.926 52.7143 167.822 52.2293 168.154 51.7875C168.154 51.8312 168.154 51.8755 168.154 51.9198C168.95 53.5065 169.746 55.0932 170.542 56.6796C172.308 59.5167 175.444 62.4817 178.1 64.4823C179.478 65.5197 180.563 67.3136 182.344 67.9204C182.344 67.8762 182.344 67.8326 182.344 67.7878C182.299 67.7878 182.255 67.7878 182.211 67.7878C181.866 67.2511 181.326 67.029 180.885 66.5978C179.847 65.5834 178.693 64.3221 177.835 63.1598C175.419 59.8885 173.283 56.3078 171.337 52.5809C170.408 50.8014 169.601 48.838 168.817 47.0269C168.515 46.3285 168.519 45.2728 167.89 44.9109C167.032 46.2382 165.768 47.3111 165.105 48.8782C164.044 51.3831 163.906 54.4379 163.514 57.6057C163.281 57.6887 163.384 57.6316 163.248 57.7376C161.401 57.2934 160.752 55.3975 160.066 53.7711C158.329 49.6578 158.007 43.0343 159.535 38.2996C159.93 37.0747 161.716 33.2162 160.993 32.0846C160.648 30.9553 159.509 30.3023 158.872 29.4394C158.083 28.3727 157.296 26.9684 156.75 25.7367C155.329 22.5294 154.665 18.9291 153.169 15.6873C152.455 14.1374 151.245 12.5692 150.252 11.1914C149.153 9.6651 147.921 8.54091 147.069 6.69482C146.766 6.03896 146.355 4.98899 146.804 4.31476C146.947 3.85967 147.149 3.66986 147.6 3.52141C148.369 2.93001 150.511 3.71817 151.313 4.05013C153.439 4.93091 155.214 5.76968 157.015 6.95945C157.88 7.53129 158.755 8.63699 159.8 8.94309C160.197 8.94309 160.596 8.94309 160.993 8.94309C162.86 9.37108 164.952 9.07599 166.696 9.60407C169.778 10.5384 172.541 11.9916 175.05 13.5714C182.694 18.3838 188.943 25.2345 193.218 33.4066C193.906 34.7223 194.204 35.9782 194.809 37.3739C196.031 40.1883 197.571 43.0844 198.787 45.8366C200 48.5825 201.183 51.3537 202.898 53.6388C203.8 54.84 207.283 55.4844 208.866 56.1511C209.975 56.6189 211.793 57.1061 212.844 57.7376C214.852 58.9453 216.797 60.3827 218.68 61.7053C219.621 62.3662 222.513 63.816 222.657 65.0108Z" fill="#A6A8AB"/>
<path fill-rule="evenodd" clip-rule="evenodd" d="M163.381 14.6294C162.408 14.6116 161.72 14.7353 160.993 14.8935C160.993 14.9377 160.993 14.982 160.993 15.0258C161.037 15.0258 161.082 15.0258 161.126 15.0258C161.59 15.9762 162.409 16.5877 162.982 17.4064C163.424 18.3321 163.866 19.2577 164.309 20.1828C164.352 20.139 164.397 20.0948 164.441 20.051C165.262 19.474 165.639 18.5507 165.634 17.1418C165.305 16.7966 165.257 16.3634 164.972 15.9514C164.592 15.4026 163.859 15.0908 163.381 14.6294Z" fill="#A6A8AB"/>
<path fill-rule="evenodd" clip-rule="evenodd" d="M219.544 103.108C219.544 106.438 222.183 108.683 225.135 108.683C228.087 108.683 230.727 106.438 230.727 103.108C230.727 99.7773 228.087 97.5328 225.135 97.5328C222.183 97.5328 219.544 99.7773 219.544 103.108ZM229.474 103.108C229.474 105.635 227.536 107.524 225.135 107.524C222.705 107.524 220.796 105.635 220.796 103.108C220.796 100.58 222.705 98.6916 225.135 98.6916C227.536 98.6916 229.474 100.58 229.474 103.108ZM226.642 106.289H227.894L226.06 103.495C227.044 103.39 227.789 102.914 227.789 101.755C227.789 100.461 226.97 99.9264 225.389 99.9264H222.899V106.289H223.973V103.539H224.972L226.642 106.289ZM223.973 102.647V100.818H225.21C225.851 100.818 226.626 100.937 226.626 101.681C226.626 102.572 225.926 102.647 225.12 102.647H223.973Z" fill="#A6A8AB"/>
</svg>
