<svg width="391" height="118" viewBox="0 0 391 118" fill="none" xmlns="http://www.w3.org/2000/svg">
<path fill-rule="evenodd" clip-rule="evenodd" d="M142.466 31.7367L142.792 37.05C146.513 32.9405 151.398 30.8858 157.444 30.8858C167.922 30.8858 173.255 36.3683 173.44 47.3332V77.714H162.143V47.9279C162.143 45.0102 161.454 42.8515 160.075 41.4471C158.696 40.045 156.439 39.344 153.307 39.344C148.748 39.344 145.351 41.2295 143.124 44.9957V77.714H131.821V31.7367H142.471H142.466ZM207.114 78.5649C199.954 78.5649 194.146 76.5053 189.699 72.3838C185.249 68.2623 183.024 62.7726 183.024 55.9171V54.6432C183.024 50.0551 183.992 45.9529 185.931 42.3415C187.867 38.73 190.59 35.9187 194.093 33.905C197.597 31.8962 201.503 30.8906 205.815 30.8906C212.665 30.8906 217.961 32.8873 221.694 36.8807C225.434 40.8766 227.301 46.5258 227.301 53.8358V58.0008H194.417C194.762 61.796 196.146 64.7983 198.58 67.0077C201.015 69.2171 204.078 70.3218 207.767 70.3218C212.943 70.3218 217.16 68.4122 220.416 64.5856L226.508 69.8988C224.492 72.6449 221.803 74.7769 218.441 76.2926C215.075 77.8083 211.302 78.5649 207.117 78.5649H207.114ZM205.767 39.1772C202.664 39.1772 200.164 40.1683 198.257 42.1505C196.348 44.1327 195.133 46.8957 194.605 50.437H216.139V49.6707C215.889 46.214 214.882 43.6033 213.116 41.8314C211.347 40.0619 208.899 39.1772 205.767 39.1772V39.1772ZM250.226 20.5639V31.7391H259.11V39.3875H250.226V65.0521C250.226 66.8071 250.608 68.0737 251.367 68.8545C252.125 69.6329 253.483 70.0221 255.437 70.0221C256.768 70.0187 258.094 69.876 259.389 69.5966V77.5859C256.816 78.2385 254.337 78.5625 251.947 78.5625C243.268 78.5625 238.927 74.1871 238.927 65.434V39.3851H230.642V31.7367H238.921V20.5615H250.221L250.226 20.5639ZM279.761 77.7164H268.458V12.449H279.761V77.7164ZM304.084 77.7164H292.782V31.7391H304.084V77.7164ZM292.084 19.7976C292.084 18.2143 292.633 16.8968 293.734 15.8477C294.837 14.801 296.409 14.2765 298.454 14.2765C300.501 14.2765 302.082 14.801 303.201 15.8477C304.315 16.8968 304.872 18.2143 304.872 19.8C304.872 21.3568 304.315 22.6524 303.201 23.6871C302.082 24.7217 300.501 25.239 298.454 25.239C296.409 25.239 294.837 24.7217 293.734 23.6871C292.633 22.6549 292.084 21.3568 292.084 19.8V19.7976ZM320.361 77.7164V39.3851H312.687V31.7367H320.361V27.5306C320.361 22.4301 321.91 18.4947 325.01 15.7172C328.113 12.9421 332.451 11.5546 338.031 11.5546C340.017 11.5546 342.126 11.8084 344.359 12.3184L344.08 20.3923C342.654 20.151 341.205 20.0376 339.755 20.0538C334.358 20.0538 331.661 22.5872 331.661 27.6587V31.7367H341.892V39.3851H331.661V77.714H320.361V77.7164ZM367.751 62.9297L377.982 31.7391H390.027L370.032 84.6855C366.961 92.4185 361.752 96.2862 354.404 96.2862C352.76 96.2862 350.946 96.0299 348.962 95.5199V87.5307L351.102 87.6588C353.953 87.6588 356.101 87.185 357.544 86.235C358.984 85.2874 360.124 83.6944 360.962 81.456L362.588 77.5037L344.915 31.7391H357.101L367.751 62.9297Z" fill="#A6A8AB"/>
<path d="M74.6752 40.9168L74.6376 40.8983C74.616 40.8891 74.5945 40.8799 74.5757 40.8584C74.5448 40.8205 74.522 40.775 74.5089 40.7254C74.4959 40.6758 74.4929 40.6234 74.5004 40.5724L76.5799 26.0397L86.332 37.1898L76.1898 42.1222C76.1616 42.1352 76.1314 42.1415 76.101 42.1406H76.0607C76.0472 42.1314 76.0338 42.1191 76.0069 42.0884C75.6295 41.608 75.1781 41.2109 74.6752 40.9168V40.9168ZM88.8204 40.0312L99.2477 51.95C101.413 54.4285 102.498 55.6647 102.893 57.0977C102.952 57.3099 103.001 57.522 103.038 57.7404L78.1187 45.6769C78.1053 45.6706 78.0919 45.6645 78.0784 45.6585C77.9788 45.6124 77.8631 45.5601 77.8631 45.4432C77.8631 45.3264 77.9815 45.271 78.0811 45.2249L78.1133 45.2095L88.8204 40.0312ZM102.613 61.5657C102.075 62.7219 101.026 63.9212 99.2504 65.9538L87.4941 79.3887L72.289 75.7694L72.2083 75.7509C72.0738 75.7263 71.9312 75.6986 71.9312 75.5603C71.8735 74.8433 71.6872 74.1476 71.3841 73.5164C71.0809 72.8853 70.6673 72.3323 70.1691 71.8917C70.1072 71.821 70.1234 71.7103 70.1422 71.6088C70.1422 71.5934 70.1422 71.5781 70.1476 71.5658L73.0073 51.498L73.0181 51.4304C73.0342 51.2766 73.0584 51.0983 73.1795 51.0983C73.7923 51.0111 74.3838 50.7854 74.9196 50.4344C75.4554 50.0833 75.9247 49.6138 76.3001 49.0533C76.3243 49.0226 76.3405 48.9888 76.3728 48.9703C76.4588 48.9242 76.5611 48.9703 76.6499 49.0134L102.611 61.5657H102.613ZM84.7905 82.4791L65.4585 104.576L68.7675 81.329L68.7729 81.2983C68.7756 81.2675 68.7809 81.2368 68.789 81.2091C68.8159 81.1353 68.8859 81.1046 68.9531 81.0738L68.9854 81.0584C69.7099 80.7051 70.3507 80.1602 70.8551 79.4686C70.9197 79.3825 70.9977 79.2995 71.0972 79.2841C71.1231 79.2793 71.1494 79.2793 71.1753 79.2841L84.7878 82.4822L84.7905 82.4791ZM61.3667 109.254L59.1876 111.744L35.0967 71.9471C35.0879 71.9325 35.079 71.9182 35.0698 71.904C35.0321 71.8456 34.9917 71.7872 34.9998 71.7195C34.9998 71.6703 35.0294 71.6273 35.059 71.5904L35.0859 71.5504C35.1585 71.4274 35.2204 71.3044 35.2877 71.1722L35.3415 71.0645L35.3495 71.0553C35.3872 70.9815 35.4222 70.9108 35.4867 70.8708C35.5432 70.8401 35.6213 70.8524 35.6831 70.8677L62.3728 77.1593C62.4475 77.1725 62.5179 77.2075 62.5773 77.2608C62.6123 77.3007 62.6203 77.3438 62.6284 77.393C62.8146 78.1981 63.1611 78.9432 63.6408 79.57C64.1205 80.1967 64.7205 80.6883 65.394 81.0062C65.4693 81.0492 65.437 81.1445 65.402 81.246C65.3846 81.2905 65.3711 81.3368 65.3617 81.3844C65.0254 83.7214 62.1415 103.826 61.3667 109.254ZM56.8148 114.453C55.2088 116.271 54.2618 117.233 53.1911 117.621C52.1354 118.002 51.0024 118.002 49.9467 117.621C48.693 117.166 47.6089 115.929 45.4433 113.451L21.2501 85.7971L27.5694 74.5947C27.599 74.5393 27.6286 74.4901 27.677 74.4502C27.7443 74.3948 27.8411 74.4194 27.9218 74.4502C29.3723 74.9504 30.9296 74.8602 32.3284 74.1949C32.4011 74.1642 32.4737 74.1427 32.5302 74.2011C32.5584 74.2306 32.5837 74.2636 32.6055 74.2995L56.8148 114.457V114.453ZM18.9177 83.131L13.3677 76.7872L24.3277 71.4428C24.3557 71.4288 24.3859 71.4215 24.4165 71.4212C24.5079 71.4212 24.5617 71.5258 24.6102 71.6211C24.7203 71.8148 24.837 72.0036 24.9599 72.1869L24.9949 72.2361C25.0271 72.2884 25.0056 72.3407 24.9733 72.3899L18.9203 83.131H18.9177ZM10.9115 73.9797L3.89006 65.9538C2.6956 64.5885 1.82935 63.5983 1.22674 62.7465L22.5764 67.8081C22.6032 67.8137 22.6301 67.8189 22.6571 67.8234C22.7889 67.848 22.9342 67.8757 22.9342 68.0172C22.9342 68.1709 22.7754 68.2416 22.6409 68.3001L22.579 68.3308L10.9115 73.9797ZM0 58.6198C0.0243308 58.1028 0.105681 57.5914 0.24212 57.0977C0.640273 55.6647 1.72174 54.4285 3.89006 51.95L12.8754 41.6794C17.0125 48.5425 21.1609 55.3968 25.3204 62.2422C25.393 62.3529 25.4737 62.4759 25.3903 62.5682C24.9976 63.0633 24.6048 63.6045 24.3277 64.1918C24.2976 64.2673 24.2514 64.3329 24.1932 64.3825C24.1582 64.4071 24.1205 64.3978 24.0802 64.3886H24.0748L0 58.6167V58.6198ZM15.2805 38.9303L27.3569 25.1203C28.4948 25.6891 32.6297 27.6848 36.3234 29.4684C39.1212 30.8214 41.6716 32.0514 42.4732 32.4512C42.554 32.4881 42.6266 32.525 42.6616 32.6172C42.6831 32.6726 42.6723 32.7433 42.6616 32.8017C42.4703 33.7986 42.4988 34.8341 42.7444 35.8153C42.9899 36.7965 43.445 37.6925 44.0686 38.4229C44.1493 38.5152 44.0686 38.6474 43.9986 38.7612L43.9609 38.8257L31.6935 60.5448C31.6612 60.6063 31.6316 60.6586 31.5778 60.6986C31.5133 60.7447 31.4218 60.7232 31.3465 60.7016C30.8694 60.5587 30.3789 60.4823 29.8857 60.4741C29.4445 60.4741 28.9656 60.5663 28.4814 60.6678H28.4787C28.4249 60.677 28.3765 60.6893 28.3334 60.6524C28.2859 60.608 28.245 60.5551 28.2124 60.4956L15.2778 38.9303H15.2805ZM29.8023 22.3312L45.4433 4.45288C47.6089 1.97746 48.693 0.738219 49.9467 0.286187C51.0024 -0.0953958 52.1354 -0.0953958 53.1911 0.286187C54.4448 0.738219 55.5289 1.97746 57.6945 4.45288L61.0842 8.32743L49.9601 28.02C49.9326 28.0774 49.8951 28.1276 49.8498 28.1676C49.7826 28.2199 49.6884 28.1984 49.6077 28.1676C48.7307 27.8634 47.802 27.808 46.902 28.0063C46.002 28.2045 45.1578 28.6504 44.4425 29.3054C44.3699 29.3915 44.2623 29.3423 44.1708 29.2962C42.7181 28.5735 31.4191 23.1153 29.8023 22.3312V22.3312ZM63.4462 11.0273L73.7175 22.7679L71.2425 40.2895V40.3356C71.2403 40.3755 71.233 40.4149 71.221 40.4524C71.1941 40.5139 71.1403 40.5262 71.0865 40.5447C70.5573 40.7279 70.0589 41.0117 69.6122 41.3842C69.593 41.3998 69.575 41.4173 69.5584 41.4365C69.5288 41.4734 69.4992 41.5072 69.4508 41.5133C69.4114 41.5147 69.3721 41.5074 69.3351 41.4918L53.6834 33.8903L53.6538 33.8749C53.5543 33.8288 53.4359 33.7734 53.4359 33.6566C53.3439 32.6596 53.0591 31.6985 52.6019 30.8429C52.5266 30.7015 52.4432 30.5539 52.5078 30.4093L63.4462 11.0273ZM52.8683 37.4912L67.5408 44.5945C67.6215 44.6376 67.7102 44.6776 67.7452 44.7729C67.7592 44.8302 67.7592 44.8908 67.7452 44.9482C67.7022 45.1942 67.6645 45.474 67.6645 45.7569V46.2274C67.6645 46.3442 67.5596 46.3934 67.4627 46.4396L67.4331 46.4519C65.1088 47.5866 34.8007 62.3591 34.755 62.3591C34.7093 62.3591 34.6608 62.3591 34.6151 62.3068C34.5344 62.2146 34.6151 62.0854 34.6877 61.9686C34.7006 61.9483 34.7131 61.9278 34.7254 61.907L46.783 40.5662L46.8045 40.5293C46.8745 40.4002 46.9552 40.2556 47.0843 40.2556L47.2054 40.2772C47.4798 40.3202 47.7219 40.3602 47.9667 40.3602C49.796 40.3602 51.4909 39.3424 52.5132 37.6019C52.5375 37.5554 52.5684 37.5138 52.6046 37.4789C52.6773 37.4174 52.7849 37.4481 52.8683 37.4912V37.4912ZM36.0651 65.7355L69.1011 49.6315C69.1011 49.6315 69.1495 49.6315 69.1952 49.6837C69.3755 49.8898 69.5288 50.0281 69.6768 50.1573L69.7494 50.2096C69.8167 50.2526 69.8839 50.3018 69.8893 50.3818C69.8893 50.4125 69.8893 50.431 69.8839 50.4587L67.0538 70.3296L67.0431 70.4095C67.0242 70.5633 67.0054 70.7386 66.879 70.7386C66.1244 70.7968 65.3937 71.0644 64.7501 71.5183C64.1065 71.9721 63.5693 72.5985 63.1853 73.3431L63.1718 73.3677C63.1342 73.4385 63.0992 73.5061 63.0373 73.543C62.9808 73.5738 62.9082 73.5615 62.849 73.5461L36.5036 67.3345C36.4767 67.3284 36.0947 65.7386 36.0651 65.7355V65.7355Z" fill="#A6A8AB"/>
</svg>
