<svg width="237" height="143" viewBox="0 0 237 143" fill="none" xmlns="http://www.w3.org/2000/svg">
<path d="M117.133 142.776C116.33 142.776 115.579 142.566 114.883 142.198L107.756 138.046C106.685 137.467 107.22 137.257 107.542 137.152C108.989 136.679 109.257 136.574 110.757 135.733C110.918 135.628 111.132 135.68 111.293 135.785L116.758 138.992C116.973 139.097 117.241 139.097 117.401 138.992L138.781 126.849C138.996 126.744 139.103 126.534 139.103 126.271V102.039C139.103 101.776 138.996 101.566 138.781 101.461L117.401 89.3707C117.187 89.2656 116.919 89.2656 116.758 89.3707L95.3784 101.461C95.164 101.566 95.0569 101.829 95.0569 102.039V126.271C95.0569 126.481 95.164 126.744 95.3784 126.849L101.219 130.161C104.38 131.738 106.363 129.898 106.363 128.058V104.141C106.363 103.826 106.631 103.511 107.006 103.511H109.739C110.06 103.511 110.382 103.773 110.382 104.141V128.058C110.382 132.211 108.078 134.629 104.059 134.629C102.827 134.629 101.862 134.629 99.1292 133.315L93.503 130.161C92.1098 129.372 91.2524 127.901 91.2524 126.324V102.091C91.2524 100.514 92.1098 99.0426 93.503 98.2542L114.883 86.1117C116.222 85.3758 118.044 85.3758 119.384 86.1117L140.764 98.2542C142.157 99.0426 143.014 100.514 143.014 102.091V126.324C143.014 127.901 142.157 129.372 140.764 130.161L119.384 142.303C118.741 142.566 117.937 142.776 117.133 142.776Z" fill="#A6A8AB"/>
<path d="M123.778 126.113C114.401 126.113 112.472 121.908 112.472 118.334C112.472 118.018 112.74 117.703 113.115 117.703H115.901C116.223 117.703 116.491 117.913 116.491 118.229C116.92 121.015 118.152 122.381 123.832 122.381C128.333 122.381 130.262 121.383 130.262 119.017C130.262 117.65 129.726 116.652 122.707 115.968C116.866 115.39 113.222 114.129 113.222 109.555C113.222 105.298 116.866 102.774 122.974 102.774C129.833 102.774 133.209 105.087 133.638 110.134C133.638 110.291 133.584 110.449 133.477 110.607C133.37 110.712 133.209 110.817 133.048 110.817H130.208C129.94 110.817 129.672 110.607 129.619 110.344C128.976 107.453 127.315 106.507 122.921 106.507C117.991 106.507 117.402 108.189 117.402 109.45C117.402 110.975 118.098 111.448 124.743 112.289C131.333 113.13 134.441 114.339 134.441 118.859C134.441 123.485 130.53 126.113 123.778 126.113Z" fill="#A6A8AB"/>
<path d="M154.643 100.672C154.643 102.88 152.767 104.72 150.517 104.72C148.266 104.72 146.391 102.932 146.391 100.672C146.391 98.3591 148.32 96.6244 150.517 96.6244C152.714 96.6244 154.643 98.4116 154.643 100.672ZM147.034 100.672C147.034 102.564 148.588 104.089 150.463 104.089C152.392 104.089 153.946 102.512 153.946 100.672C153.946 98.7796 152.392 97.3077 150.463 97.3077C148.641 97.3077 147.034 98.7796 147.034 100.672ZM148.963 98.4116H150.57C151.106 98.4116 152.178 98.4116 152.178 99.6207C152.178 100.462 151.642 100.619 151.32 100.725C151.963 100.777 152.017 101.198 152.071 101.776C152.124 102.144 152.178 102.775 152.285 102.985H151.32C151.32 102.775 151.16 101.618 151.16 101.566C151.106 101.303 150.999 101.198 150.677 101.198H149.874V103.037H148.963V98.4116ZM149.82 100.409H150.517C151.106 100.409 151.213 99.9886 151.213 99.7784C151.213 99.1476 150.785 99.1476 150.517 99.1476H149.766V100.409H149.82Z" fill="#A6A8AB"/>
<path fill-rule="evenodd" clip-rule="evenodd" d="M50.8508 48.0022C50.8508 47.056 50.3149 46.1624 49.4576 45.6893L26.7918 32.8111C26.4167 32.6008 25.988 32.4957 25.5593 32.4431C25.5058 32.4431 25.345 32.4431 25.345 32.4431C24.9163 32.4431 24.4877 32.6008 24.1126 32.8111L1.39317 45.6368C0.535835 46.1098 0 47.0034 0 48.0022L0.0535835 82.4844C0.0535835 82.9574 0.321501 83.4305 0.750169 83.6408C1.17884 83.9036 1.71467 83.9036 2.08976 83.6408L15.5928 76.0715C16.4501 75.5984 16.986 74.7048 16.986 73.7587V57.6214C16.986 56.6753 17.5218 55.7817 18.3791 55.3086L24.1126 52.0496C24.5413 51.7868 25.0235 51.6817 25.5058 51.6817C25.988 51.6817 26.4703 51.7868 26.8453 52.0496L32.5788 55.3086C33.4361 55.7817 33.972 56.6753 33.972 57.6214V73.7587C33.972 74.7048 34.5078 75.5984 35.3651 76.0715L48.761 83.6408C49.1897 83.9036 49.7255 83.9036 50.1542 83.6408C50.5828 83.4305 50.8508 82.9574 50.8508 82.4844V48.0022Z" fill="#969696"/>
<path fill-rule="evenodd" clip-rule="evenodd" d="M160.054 0.536234C159.625 0.325975 159.089 0.325975 158.714 0.536234C158.286 0.799058 158.018 1.21958 158.018 1.69266V35.8598C158.018 36.1752 157.857 36.4905 157.536 36.7008C157.214 36.8585 156.893 36.8585 156.571 36.7008L150.891 33.4944C150.034 33.0213 149.016 33.0213 148.158 33.4944L125.439 46.3727C124.582 46.8458 124.046 47.7394 124.046 48.6856V74.3898C124.046 75.3359 124.582 76.2295 125.439 76.7026L148.158 89.581C149.016 90.0541 150.034 90.0541 150.891 89.581L173.611 76.7026C174.468 76.2295 175.004 75.3359 175.004 74.3898V10.3133C175.004 9.31455 174.468 8.42095 173.611 7.94787L160.054 0.536234ZM157.964 65.9268C157.964 66.1896 157.857 66.3999 157.643 66.505L149.873 70.9205C149.659 71.0256 149.391 71.0256 149.177 70.9205L141.407 66.505C141.193 66.3999 141.085 66.1371 141.085 65.9268V57.0959C141.085 56.8331 141.193 56.6229 141.407 56.5177L149.177 52.1023C149.391 51.9972 149.659 51.9972 149.873 52.1023L157.643 56.5177C157.857 56.6229 157.964 56.8857 157.964 57.0959V65.9268Z" fill="#969696"/>
<path fill-rule="evenodd" clip-rule="evenodd" d="M235.66 56.8855C236.518 56.4124 237 55.5188 237 54.5726V48.3174C237 47.3713 236.464 46.4777 235.66 46.0046L213.102 33.1788C212.244 32.7057 211.226 32.7057 210.369 33.1788L187.65 46.0571C186.792 46.5302 186.256 47.4238 186.256 48.37V74.0741C186.256 75.0203 186.792 75.9139 187.65 76.387L210.208 89.0025C211.066 89.4756 212.084 89.4756 212.887 89.0025L226.551 81.5383C226.98 81.328 227.248 80.855 227.248 80.3819C227.248 79.9088 226.98 79.4357 226.551 79.2255L203.725 66.3471C203.296 66.0843 203.028 65.6638 203.028 65.1907V57.1483C203.028 56.6752 203.296 56.2021 203.725 55.9919L210.851 51.9969C211.28 51.7341 211.816 51.7341 212.244 51.9969L219.371 55.9919C219.8 56.2547 220.068 56.6752 220.068 57.1483V63.456C220.068 63.9291 220.336 64.4022 220.764 64.6125C221.193 64.8753 221.729 64.8753 222.157 64.6125L235.66 56.8855Z" fill="#A6A8AB"/>
<path fill-rule="evenodd" clip-rule="evenodd" d="M211.387 55.6765C211.548 55.5714 211.762 55.5714 211.923 55.6765L216.263 58.1471C216.424 58.2522 216.531 58.4099 216.531 58.6202V63.5613C216.531 63.7716 216.424 63.9293 216.263 64.0344L211.923 66.505C211.762 66.6101 211.548 66.6101 211.387 66.505L207.047 64.0344C206.886 63.9293 206.779 63.7716 206.779 63.5613V58.6202C206.779 58.4099 206.886 58.2522 207.047 58.1471L211.387 55.6765Z" fill="#A6A8AB"/>
<path d="M88.8409 33.2841C87.9836 32.8111 86.9655 32.8111 86.1082 33.2841L63.5495 46.0573C62.6922 46.5304 62.21 47.424 62.21 48.3702V73.9691C62.21 74.9152 62.7458 75.8088 63.5495 76.2819L86.1082 89.0551C86.9655 89.5282 87.9836 89.5282 88.8409 89.0551L111.4 76.2819C112.257 75.8088 112.739 74.9152 112.739 73.9691V48.3702C112.739 47.424 112.203 46.5304 111.4 46.0573L88.8409 33.2841Z" fill="#A6A8AB"/>
<path d="M111.454 46.0578L88.7886 33.2847C88.5742 33.1795 88.3063 33.0744 88.092 33.0219L62.6934 75.6516C62.9077 75.9144 63.1756 76.1247 63.4435 76.2824L86.1094 89.0555C86.7524 89.4235 87.5026 89.5286 88.1991 89.3184L112.044 46.5309C111.883 46.3207 111.669 46.163 111.454 46.0578Z" fill="#A6A8AB"/>
<path d="M85.3577 28.6058L85.0361 28.7632H85.4648L85.3577 28.6058Z" fill="#A6A8AB"/>
<path d="M111.455 76.282C112.098 75.9141 112.58 75.2833 112.794 74.6L87.9849 32.9687C87.3419 32.8636 86.6454 32.9162 86.0559 33.2841L63.5508 46.0048L87.8242 89.4232C88.1457 89.3707 88.5208 89.2655 88.8423 89.1078L111.455 76.282Z" fill="#A6A8AB"/>
<path d="M113.598 75.8611L113.437 75.5989V75.9659L113.598 75.8611Z" fill="#A6A8AB"/>
<path d="M111.454 76.2818L88.8418 89.0552C88.5203 89.2129 88.1988 89.318 87.8237 89.3706L88.3596 90.1591L113.544 75.9138V75.5984L112.847 74.5471C112.686 75.283 112.151 75.9138 111.454 76.2818Z" fill="#A6A8AB"/>
<path d="M111.454 76.2818L88.8418 89.0552C88.5203 89.2129 88.1988 89.318 87.8237 89.3706L88.3596 90.1591L113.544 75.9138V75.5984L112.847 74.5471C112.686 75.283 112.151 75.9138 111.454 76.2818Z" fill="#A6A8AB"/>
</svg>
