<svg width="220" height="164" viewBox="0 0 220 164" fill="none" xmlns="http://www.w3.org/2000/svg">
<path d="M220 94.3489C220 84.0072 206.562 74.2064 185.958 68.1287C190.713 47.8907 188.6 31.7894 179.289 26.6345C177.142 25.4253 174.633 24.8525 171.892 24.8525V31.9485C173.411 31.9485 174.633 32.2349 175.657 32.7759C180.147 35.2579 182.095 44.7086 180.576 56.8641C180.213 59.8553 179.619 63.0055 178.892 66.2194C172.421 64.692 165.355 63.5147 157.926 62.751C153.468 56.8641 148.846 51.5183 144.19 46.8406C154.954 37.1989 165.058 31.9167 171.925 31.9167V24.8207C162.845 24.8207 150.959 31.0575 138.94 41.8766C126.922 31.1212 115.035 24.948 105.955 24.948V32.044C112.79 32.044 122.926 37.2944 133.69 46.8724C129.068 51.5501 124.445 56.8641 120.054 62.751C112.592 63.5147 105.526 64.692 99.0543 66.2513C98.2949 63.0692 97.7336 59.9826 97.3374 57.0232C95.7855 44.8677 97.7006 35.417 102.158 32.9031C103.149 32.3304 104.436 32.0758 105.955 32.0758V24.9798C103.182 24.9798 100.672 25.5526 98.493 26.7617C89.2149 31.9167 87.1347 47.9862 91.9224 68.1605C71.3851 74.2701 58.0127 84.039 58.0127 94.3489C58.0127 104.691 71.4511 114.491 92.0545 120.569C87.2998 140.807 89.413 156.908 98.7241 162.063C100.87 163.273 103.38 163.845 106.153 163.845C115.233 163.845 127.12 157.609 139.138 146.789C151.157 157.545 163.044 163.718 172.124 163.718C174.897 163.718 177.406 163.145 179.586 161.936C188.864 156.781 190.944 140.712 186.156 120.537C206.628 114.46 220 104.659 220 94.3489ZM177.01 73.1245C175.789 77.2294 174.27 81.4616 172.553 85.6937C171.199 83.148 169.779 80.6024 168.227 78.0567C166.709 75.5111 165.091 73.0291 163.473 70.6107C168.161 71.2789 172.685 72.1063 177.01 73.1245ZM161.888 107.014C159.313 111.309 156.671 115.382 153.931 119.169C149.011 119.583 144.025 119.806 139.006 119.806C134.021 119.806 129.035 119.583 124.148 119.201C121.408 115.414 118.733 111.373 116.158 107.109C113.648 102.941 111.37 98.7084 109.29 94.4444C111.337 90.1804 113.648 85.9165 116.125 81.7479C118.7 77.4521 121.342 73.3791 124.082 69.5924C129.002 69.1788 133.988 68.956 139.006 68.956C143.992 68.956 148.978 69.1788 153.865 69.5606C156.605 73.3473 159.28 77.3885 161.855 81.6525C164.364 85.821 166.643 90.0531 168.723 94.3171C166.643 98.5811 164.364 102.845 161.888 107.014ZM172.553 102.877C174.336 107.141 175.855 111.405 177.109 115.542C172.784 116.56 168.227 117.419 163.506 118.087C165.124 115.637 166.742 113.123 168.26 110.546C169.779 108 171.199 105.423 172.553 102.877ZM139.072 136.83C136.002 133.775 132.931 130.37 129.893 126.647C132.865 126.774 135.903 126.87 138.973 126.87C142.077 126.87 145.148 126.806 148.152 126.647C145.181 130.37 142.11 133.775 139.072 136.83ZM114.507 118.087C109.818 117.419 105.295 116.592 100.969 115.573C102.191 111.468 103.71 107.236 105.427 103.004C106.781 105.55 108.2 108.096 109.752 110.641C111.304 113.187 112.889 115.669 114.507 118.087ZM138.907 51.8683C141.978 54.9231 145.049 58.3279 148.086 62.0509C145.115 61.9236 142.077 61.8282 139.006 61.8282C135.903 61.8282 132.832 61.8918 129.827 62.0509C132.799 58.3279 135.87 54.9231 138.907 51.8683ZM114.474 70.6107C112.856 73.0609 111.238 75.5747 109.719 78.1522C108.2 80.6979 106.781 83.2435 105.427 85.7892C103.644 81.5252 102.125 77.2612 100.87 73.1245C105.196 72.1381 109.752 71.2789 114.474 70.6107ZM84.5923 110.45C72.9039 105.645 65.3427 99.3448 65.3427 94.3489C65.3427 89.3531 72.9039 83.0208 84.5923 78.2477C87.4319 77.0703 90.5356 76.0202 93.7384 75.0338C95.6204 81.2706 98.0968 87.7621 101.167 94.4126C98.1298 101.031 95.6865 107.491 93.8374 113.696C90.5686 112.709 87.4649 111.628 84.5923 110.45ZM102.356 155.922C97.8657 153.44 95.9176 143.989 97.4364 131.834C97.7996 128.843 98.394 125.692 99.1204 122.478C105.592 124.006 112.658 125.183 120.087 125.947C124.544 131.834 129.167 137.18 133.822 141.857C123.059 151.499 112.955 156.781 106.087 156.781C104.601 156.749 103.347 156.463 102.356 155.922ZM180.675 131.675C182.227 143.83 180.312 153.281 175.855 155.795C174.864 156.368 173.576 156.622 172.058 156.622C165.223 156.622 155.086 151.372 144.322 141.794C148.945 137.116 153.567 131.802 157.959 125.915C165.421 125.151 172.487 123.974 178.958 122.415C179.718 125.629 180.312 128.715 180.675 131.675ZM193.387 110.45C190.548 111.628 187.444 112.678 184.241 113.664C182.359 107.427 179.883 100.936 176.812 94.2853C179.85 87.6666 182.293 81.207 184.142 75.0019C187.411 75.9884 190.515 77.0703 193.42 78.2477C205.109 83.0526 212.67 89.3531 212.67 94.3489C212.637 99.3448 205.076 105.677 193.387 110.45Z" fill="#A6A8AB"/>
<path d="M138.974 108.892C147.307 108.892 154.063 102.381 154.063 94.3494C154.063 86.3179 147.307 79.8071 138.974 79.8071C130.64 79.8071 123.884 86.3179 123.884 94.3494C123.884 102.381 130.64 108.892 138.974 108.892Z" fill="#A6A8AB"/>
</svg>
