<svg width="652" height="526" viewBox="0 0 652 526" fill="none" xmlns="http://www.w3.org/2000/svg">
<path d="M371.433 465.34C366.924 459.023 360.821 454.401 353.148 452.671C346.458 451.163 339.578 451.42 332.777 451.472L246.78 452.136C239.415 452.193 232.354 458.577 232.696 466.229C233.036 473.816 238.886 480.383 246.78 480.322C271.971 480.127 297.162 479.933 322.353 479.739C328.292 479.693 334.234 479.586 340.174 479.605C341.507 479.61 342.836 479.68 344.168 479.695C344.491 479.699 344.724 479.696 344.888 479.689C344.93 479.701 344.964 479.713 345.018 479.728C345.713 479.919 346.426 480.05 347.126 480.232C346.881 480.239 347.579 480.675 347.93 480.823C347.978 480.918 348.081 481.086 348.252 481.347C348.492 481.796 349.2 483.16 349.23 483.117C350.294 485.811 351.173 488.576 351.859 491.391C353.496 497.598 353.855 498.895 354.091 504.719C354.389 512.076 360.356 519.162 368.175 518.812C375.551 518.481 382.579 512.609 382.26 504.719C381.722 491.424 379.389 476.489 371.433 465.34Z" fill="#E6E6E6"/>
<path d="M251.836 497.142C250.22 487.348 248.636 477.547 246.989 467.759C245.319 457.828 241.906 448.735 234.183 442.217C232.12 440.476 229.98 438.85 227.831 437.229C227.076 436.66 226.321 436.089 225.575 435.507C225.53 435.472 225.502 435.45 225.463 435.42C225.381 435.349 225.282 435.265 225.15 435.153C221.931 432.427 218.821 429.58 215.858 426.554C213.227 423.866 210.711 421.064 208.31 418.146C207.71 417.418 207.118 416.683 206.533 415.941C206.432 415.814 205.891 415.113 205.534 414.656C205.202 414.199 204.596 413.373 204.494 413.229C203.811 412.262 203.14 411.287 202.482 410.303C197.996 403.578 194.111 396.47 190.873 389.061C190.552 388.327 190.239 387.588 189.933 386.844C189.851 386.618 189.745 386.326 189.604 385.938C188.951 384.143 188.3 382.35 187.703 380.533C186.436 376.674 185.346 372.759 184.434 368.786C183.983 366.825 183.577 364.853 183.216 362.872C183.03 361.853 182.856 360.832 182.694 359.808C182.668 359.639 182.509 358.535 182.416 357.911C182.347 357.284 182.219 356.174 182.202 356.003C182.099 354.971 182.007 353.939 181.927 352.906C181.747 350.58 181.626 348.251 181.562 345.918C181.454 341.771 181.528 337.625 181.785 333.479C181.931 331.15 182.139 328.826 182.395 326.507C182.411 326.365 182.423 326.251 182.434 326.149C182.449 326.046 182.467 325.928 182.489 325.782C182.678 324.5 182.878 323.22 183.101 321.944C183.946 317.1 185.044 312.304 186.392 307.575C187.031 305.339 187.724 303.121 188.472 300.92C188.806 299.944 189.15 298.971 189.505 298.002C189.482 298.064 190.545 295.345 190.56 295.254C194.78 285.275 201.684 276.178 201.694 264.843C201.7 257.168 195.211 249.816 187.609 250.171C183.819 250.313 180.233 251.923 177.605 254.66C174.978 257.397 173.515 261.048 173.525 264.843C173.525 265.015 173.524 265.162 173.524 265.305C173.453 265.544 173.393 265.743 173.34 265.919C172.517 267.709 171.509 269.41 170.605 271.155C168.131 275.932 166.019 280.866 164.013 285.872C160.729 294.025 158.216 302.467 156.505 311.088C152.787 329.979 152.499 349.384 155.653 368.377C161.114 401.683 179.123 433.565 204.159 454.995C206.332 456.855 208.558 458.652 210.804 460.413C211.734 461.142 212.671 461.857 213.614 462.567C214.059 462.903 215.904 464.359 215.092 463.654C216.837 465.144 217.572 465.894 218.02 466.991C218.085 467.245 218.174 467.588 218.293 468.058C218.609 469.296 218.909 470.531 219.159 471.786C221.338 482.753 222.853 493.905 224.673 504.943C225.924 512.527 235.256 517.464 241.999 515.191C249.847 512.545 253.176 505.269 251.836 497.142Z" fill="#E6E6E6"/>
<path d="M372.857 525.588C366.942 525.604 361.262 523.271 357.064 519.101C352.866 514.932 350.492 509.266 350.463 503.348V487.272C333.642 489.156 276.041 488.719 259.53 486.065V502.705C259.486 508.619 257.107 514.275 252.912 518.441C248.717 522.608 243.047 524.945 237.136 524.945C231.226 524.945 225.555 522.608 221.36 518.441C217.165 514.275 214.786 508.619 214.742 502.705V470.034C192.379 457.603 173.736 439.426 160.738 417.379C147.739 395.332 140.856 370.214 140.798 344.616C140.798 300.725 160.678 259.781 195.339 232.283C217.876 214.343 245.258 203.554 273.968 201.302C277.865 200.996 281.785 200.841 285.622 200.841C299.136 200.841 360.109 202.93 375.408 207.334L410.292 172.699C410.804 172.183 411.459 171.831 412.173 171.689C412.886 171.547 413.625 171.62 414.297 171.9C414.973 172.17 415.553 172.637 415.959 173.242C416.365 173.847 416.578 174.56 416.572 175.289V180.795L423.364 174.064C423.876 173.547 424.53 173.195 425.243 173.053C425.956 172.91 426.696 172.984 427.366 173.264C428.043 173.533 428.623 174.001 429.03 174.606C429.436 175.211 429.65 175.925 429.644 176.654V238.191C447.148 253.981 460.489 273.848 468.485 296.03C476.481 318.213 478.885 342.027 475.483 365.361C472.082 388.696 462.98 410.83 448.985 429.804C434.99 448.777 416.534 464.003 395.251 474.132V503.348C395.222 509.266 392.848 514.932 388.65 519.101C384.452 523.271 378.772 525.604 372.857 525.588V525.588ZM352.223 485.274V503.348C352.268 508.794 354.461 514.003 358.326 517.838C362.191 521.674 367.414 523.826 372.857 523.826C378.301 523.826 383.523 521.674 387.388 517.838C391.253 514.003 393.446 508.794 393.491 503.348V473.019L393.993 472.78C417.873 461.442 438.145 443.703 452.559 421.533C470.926 393.243 478.564 359.308 474.092 325.87C469.619 292.433 453.331 261.702 428.176 239.24L427.883 238.977V176.654C427.89 176.275 427.78 175.903 427.569 175.589C427.358 175.275 427.055 175.033 426.702 174.896C426.352 174.746 425.964 174.705 425.59 174.78C425.216 174.854 424.873 175.04 424.606 175.313L414.811 185.02V175.289C414.818 174.91 414.708 174.538 414.497 174.224C414.285 173.91 413.983 173.668 413.63 173.531C413.279 173.381 412.89 173.341 412.515 173.416C412.141 173.491 411.797 173.677 411.53 173.951L375.9 209.327L375.394 209.168C361.172 204.714 299.238 202.603 285.621 202.603C281.831 202.603 277.957 202.756 274.106 203.058C245.745 205.283 218.696 215.941 196.433 233.663C162.195 260.825 142.559 301.266 142.559 344.616C142.617 369.987 149.464 394.88 162.387 416.708C175.31 438.536 193.839 456.504 216.048 468.745L216.502 468.996V502.705C216.548 508.151 218.741 513.358 222.606 517.193C226.471 521.028 231.693 523.18 237.136 523.18C242.579 523.18 247.801 521.028 251.666 517.193C255.531 513.358 257.725 508.151 257.77 502.705V483.956L258.813 484.152C273.651 486.946 336.129 487.386 351.229 485.404L352.223 485.274Z" fill="#F6F7FF"/>
<path d="M253.518 104.92L156.036 134.234C152.935 135.17 150.333 137.299 148.8 140.154C147.268 143.009 146.931 146.356 147.863 149.459C148.795 152.563 150.92 155.169 153.771 156.706C156.622 158.243 159.967 158.584 163.07 157.655L248.377 131.997L250.164 131.459C250.526 122.245 253.024 113.24 257.462 105.158C256.905 104.907 256.31 104.753 255.701 104.7C254.966 104.629 254.224 104.704 253.518 104.92Z" fill="#F6F7FF"/>
<path d="M161.384 163.904C160.09 163.901 158.829 163.491 157.781 162.732C156.732 161.973 155.949 160.904 155.541 159.675L149.445 141.27C149.19 140.501 149.089 139.69 149.148 138.882C149.207 138.075 149.424 137.287 149.787 136.563C150.151 135.839 150.653 135.194 151.265 134.665C151.877 134.136 152.588 133.732 153.356 133.478L232.697 107.168C233.465 106.913 234.275 106.812 235.082 106.871C235.889 106.929 236.677 107.147 237.4 107.51C238.123 107.873 238.768 108.375 239.297 108.988C239.826 109.601 240.23 110.311 240.484 111.08L246.58 129.485C247.087 130.999 246.985 132.651 246.296 134.091C245.607 135.531 244.385 136.647 242.889 137.201C242.815 137.228 242.741 137.254 242.667 137.279L163.328 163.588C162.701 163.797 162.045 163.904 161.384 163.904Z" fill="#2BC4A9"/>
<path d="M309.97 72.2334C293.957 72.2396 278.575 78.4803 267.079 89.6346C255.583 100.789 248.876 115.981 248.377 131.997C248.359 132.622 248.351 133.256 248.351 133.89C248.351 146.085 251.965 158.006 258.735 168.145C265.506 178.285 275.13 186.187 286.389 190.854C297.649 195.521 310.039 196.742 321.992 194.363C333.945 191.984 344.924 186.111 353.542 177.488C362.159 168.866 368.028 157.879 370.406 145.919C372.783 133.959 371.563 121.562 366.899 110.295C362.235 99.0289 354.337 89.3994 344.204 82.6245C334.071 75.8495 322.157 72.2334 309.97 72.2334V72.2334ZM309.97 193.786C294.1 193.769 278.884 187.453 267.662 176.224C256.44 164.996 250.128 149.771 250.111 133.89C250.111 133.071 250.129 132.261 250.164 131.459C250.641 119.727 254.554 108.393 261.416 98.8678C268.279 89.3425 277.788 82.0458 288.761 77.8849C299.735 73.724 311.689 72.8825 323.137 75.4651C334.585 78.0478 345.021 83.9405 353.149 92.4106C361.276 100.881 366.737 111.555 368.85 123.105C370.964 134.655 369.638 146.572 365.037 157.374C360.436 168.177 352.763 177.387 342.972 183.861C333.182 190.335 321.705 193.786 309.97 193.786V193.786Z" fill="#3E98C7"/>
<path d="M361.906 133.89C361.906 147.673 356.435 160.891 346.695 170.637C336.955 180.383 323.744 185.858 309.97 185.858C296.196 185.858 282.986 180.383 273.246 170.637C263.506 160.891 258.034 147.673 258.034 133.89C258.034 132.243 258.113 130.623 258.262 129.019C259.514 115.718 265.837 103.409 275.92 94.6498C286.002 85.8904 299.069 81.353 312.407 81.9798C325.745 82.6067 338.329 88.3495 347.546 98.016C356.764 107.682 361.906 120.53 361.906 133.89V133.89Z" fill="#E6E6E6"/>
<path d="M325.437 137.343C324.178 135.687 322.522 134.375 320.622 133.529C318.278 132.541 315.858 131.746 313.386 131.151V117.005C317.186 117.579 320.751 119.205 323.676 121.7L326.546 115.578C324.895 114.107 323.001 112.935 320.947 112.117C318.671 111.194 316.282 110.581 313.843 110.293V103.124H307.197V110.364C304.631 110.652 302.155 111.484 299.935 112.804C297.929 113.992 296.241 115.648 295.014 117.631C293.843 119.566 293.237 121.79 293.263 124.052C293.148 126.503 293.858 128.922 295.278 130.922C296.586 132.654 298.312 134.024 300.296 134.903C302.676 135.921 305.138 136.737 307.655 137.343V150.899C303.17 150.56 298.896 148.854 295.41 146.01L292.541 152.141C294.49 153.753 296.707 155.011 299.09 155.858C301.702 156.793 304.43 157.362 307.197 157.549V164.657H313.843V157.417C317.535 157.013 320.997 155.425 323.711 152.889C324.907 151.742 325.851 150.359 326.484 148.828C327.118 147.297 327.427 145.65 327.391 143.993C327.501 141.62 326.813 139.279 325.437 137.343V137.343ZM307.655 129.654C306.036 129.162 304.531 128.354 303.227 127.275C302.711 126.816 302.302 126.247 302.031 125.61C301.76 124.974 301.634 124.285 301.66 123.594C301.612 122.025 302.189 120.501 303.262 119.357C304.453 118.157 305.989 117.359 307.655 117.076V129.654ZM317.558 148.397C316.435 149.55 314.973 150.312 313.386 150.573V138.911C314.903 139.318 316.322 140.028 317.558 140.999C318.027 141.399 318.399 141.9 318.647 142.464C318.896 143.028 319.014 143.641 318.993 144.258C319.054 145.769 318.542 147.248 317.558 148.397V148.397Z" fill="#3E98C7"/>
<path d="M164.213 238.499C162.852 238.497 161.53 238.046 160.452 237.215C159.373 236.385 158.599 235.221 158.249 233.905L154.93 221.336C154.515 219.756 154.743 218.076 155.564 216.664C156.385 215.252 157.732 214.223 159.31 213.804L264.011 186.12C265.591 185.708 267.269 185.938 268.68 186.761C270.091 187.584 271.118 188.933 271.538 190.512L274.349 201.16L273.822 201.201C246.97 203.29 221.277 213.032 199.785 229.274L199.632 229.348L165.776 238.297C165.266 238.431 164.741 238.499 164.213 238.499V238.499Z" fill="#2BC4A9"/>
<path d="M146.872 300.585C134.59 298.769 122.844 294.325 112.434 287.556C107.277 284.204 102.502 280.297 98.1965 275.904C93.9466 271.566 89.8809 266.637 87.7759 260.86C85.7506 255.516 85.855 249.597 88.0675 244.328C90.2498 239.091 94.4185 234.933 99.6597 232.767C104.932 230.663 111.302 230.438 116.434 232.742C118.879 233.814 120.995 235.519 122.564 237.68C123.294 238.676 123.834 239.798 124.158 240.99C124.458 242.07 124.486 243.208 124.237 244.301C123.936 245.393 123.406 246.407 122.681 247.276C121.956 248.146 121.054 248.85 120.035 249.342C117.792 250.493 115.362 251.235 112.859 251.532C110.341 251.875 106.725 252.188 104.7 250.166C104.284 249.766 103.956 249.282 103.739 248.747C103.587 248.337 103.535 247.897 103.587 247.463C103.557 247.654 103.709 247.047 103.7 247.071C103.668 247.161 103.53 247.379 103.727 247.043C103.788 246.932 103.857 246.826 103.932 246.724C103.865 246.81 103.718 246.955 103.981 246.707C104.197 246.469 104.476 246.297 104.785 246.21C104.907 246.174 105.031 246.146 105.153 246.112C105.464 246.027 104.844 246.117 105.161 246.107C105.284 246.103 105.408 246.106 105.53 246.1C105.842 246.086 105.223 246.015 105.521 246.09C105.637 246.12 105.752 246.148 105.866 246.184C106.115 246.262 105.69 246.002 105.859 246.197C106.056 246.425 105.652 245.975 105.876 246.196C105.987 246.305 106.092 246.421 106.191 246.543C106.579 246.927 107.104 247.142 107.65 247.142C108.196 247.142 108.72 246.927 109.109 246.543C109.484 246.15 109.694 245.627 109.694 245.083C109.694 244.539 109.484 244.016 109.109 243.623C107.074 241.099 103.055 241.723 100.997 243.856C98.3718 246.576 99.4113 250.888 101.965 253.261C104.855 255.949 108.949 256.135 112.667 255.685C115.81 255.383 118.872 254.518 121.707 253.129C124.524 251.744 126.727 249.362 127.89 246.445C128.415 244.888 128.604 243.237 128.443 241.602C128.283 239.967 127.778 238.384 126.96 236.959C123.677 230.784 116.88 227.618 110.161 227.069C106.701 226.798 103.223 227.216 99.926 228.299C96.6292 229.382 93.5798 231.108 90.9542 233.378C85.8934 237.937 82.7772 244.268 82.2498 251.061C81.6633 258.104 84.3942 264.943 88.3758 270.627C92.5441 276.402 97.5182 281.55 103.146 285.912C114.149 294.702 127.056 300.793 140.833 303.697C142.472 304.035 144.119 304.325 145.775 304.567C146.302 304.694 146.858 304.616 147.33 304.348C147.801 304.081 148.153 303.643 148.314 303.125C148.455 302.597 148.383 302.034 148.113 301.559C147.844 301.084 147.398 300.734 146.872 300.585L146.872 300.585Z" fill="#F6F7FF"/>
<path d="M343.513 210.851C325.519 210.597 307.581 211.054 289.699 212.222C283.587 212.621 278.299 214.783 278.299 218.416C278.299 221.453 283.545 225.012 289.699 224.609C307.572 223.442 325.51 222.985 343.513 223.239C358.191 223.446 358.182 211.058 343.513 210.851Z" fill="#CCCCCC"/>
<path d="M316.917 222.625C314.972 222.625 269.289 222.552 269.289 216.238C269.289 209.925 314.972 209.852 316.917 209.852C318.862 209.852 364.545 209.925 364.545 216.238C364.545 222.552 318.862 222.625 316.917 222.625ZM271.075 216.238C272.325 218.153 289.118 220.863 316.917 220.863C344.716 220.863 361.508 218.153 362.759 216.238C361.509 214.324 344.716 211.614 316.917 211.614C289.118 211.614 272.325 214.324 271.075 216.238V216.238Z" fill="#E6E6E6"/>
<path d="M461.858 388.615C471.971 388.334 484.557 387.982 494.253 380.895C497.141 378.698 499.513 375.896 501.204 372.685C502.895 369.474 503.864 365.932 504.042 362.307C504.24 356.71 502.219 351.824 498.352 348.554C493.287 344.272 485.892 343.268 477.923 345.611L486.18 285.233L480.118 284.402L470.411 355.384L475.473 353.06C481.341 350.367 489.397 348.996 494.402 353.229C495.631 354.336 496.589 355.711 497.201 357.248C497.812 358.785 498.061 360.443 497.929 362.092C497.78 364.79 497.053 367.424 495.796 369.816C494.539 372.207 492.782 374.3 490.644 375.951C483.099 381.466 473.066 382.177 461.688 382.496L461.858 388.615Z" fill="#F6F7FF"/>
<path d="M445.099 290.44H412.148V296.562H445.099V290.44Z" fill="#F6F7FF"/>
<path d="M179.123 266.655C177.657 266.651 176.24 266.124 175.126 265.169C174.012 264.213 173.275 262.893 173.046 261.443L171.035 248.6C170.784 246.984 171.183 245.335 172.145 244.014C173.108 242.693 174.555 241.808 176.169 241.554L283.15 224.781C284.764 224.529 286.412 224.929 287.732 225.892C289.053 226.855 289.937 228.303 290.191 229.918L292.203 242.762C292.454 244.377 292.055 246.026 291.092 247.347C290.13 248.668 288.683 249.553 287.069 249.808L180.088 266.58C179.769 266.63 179.446 266.655 179.123 266.655Z" fill="#2BC4A9"/>
<path d="M134.849 116.139C159.644 116.139 179.743 96.0274 179.743 71.2179C179.743 46.4085 159.644 26.2964 134.849 26.2964C110.055 26.2964 89.955 46.4085 89.955 71.2179C89.955 96.0274 110.055 116.139 134.849 116.139Z" fill="#F6F7FF"/>
<path d="M164.517 265.87C162.903 265.867 161.327 265.371 160.001 264.45C158.675 263.529 157.66 262.225 157.093 260.713L126.139 177.768C122.356 167.595 122.76 156.336 127.263 146.461C131.765 136.586 139.999 128.901 150.157 125.093L175.326 115.689C176.299 115.323 177.335 115.153 178.374 115.189C179.413 115.225 180.435 115.467 181.38 115.9C182.323 116.321 183.173 116.927 183.88 117.681C184.586 118.435 185.136 119.322 185.496 120.291L242.834 228.617C243.206 229.594 243.382 230.635 243.351 231.68C243.319 232.725 243.082 233.753 242.652 234.706C242.222 235.658 241.607 236.517 240.845 237.231C240.082 237.945 239.185 238.502 238.207 238.868L167.286 265.366C166.401 265.699 165.463 265.869 164.517 265.87Z" fill="#2BC4A9"/>
<path d="M167.689 118.542L224.581 194.667L186.085 119.341C185.767 118.462 185.279 117.655 184.649 116.964C184.019 116.274 183.26 115.715 182.414 115.319C181.568 114.922 180.652 114.696 179.719 114.654C178.786 114.612 177.853 114.754 176.975 115.073L167.689 118.542Z" fill="#E6E6E6"/>
<path d="M257.77 176.354L156.19 169.807C154.589 169.704 153.024 169.286 151.584 168.578C150.144 167.869 148.858 166.884 147.799 165.678C146.74 164.472 145.928 163.07 145.411 161.55C144.893 160.03 144.68 158.424 144.783 156.821C144.886 155.219 145.304 153.653 146.012 152.213C146.72 150.772 147.704 149.485 148.909 148.425C150.114 147.365 151.516 146.553 153.035 146.035C154.554 145.518 156.16 145.304 157.761 145.407L259.341 151.954C260.091 152.002 260.824 152.198 261.498 152.53C262.172 152.861 262.775 153.323 263.271 153.887C263.767 154.452 264.147 155.109 264.389 155.821C264.631 156.532 264.731 157.285 264.683 158.035L263.848 171.009C263.75 172.524 263.055 173.939 261.915 174.941C260.775 175.944 259.284 176.452 257.77 176.354Z" fill="#F6F7FF"/>
<path d="M230.626 180.552C230.492 180.552 230.358 180.547 230.223 180.539H230.223L146.811 175.163C146.004 175.111 145.214 174.9 144.488 174.543C143.762 174.186 143.113 173.689 142.579 173.081C142.045 172.472 141.635 171.765 141.374 170.999C141.113 170.232 141.006 169.422 141.058 168.614L142.484 146.454C142.536 145.646 142.747 144.856 143.104 144.13C143.461 143.403 143.958 142.754 144.566 142.219C145.173 141.685 145.881 141.275 146.647 141.014C147.413 140.753 148.222 140.646 149.03 140.698L232.442 146.073C234.072 146.18 235.593 146.93 236.671 148.158C237.75 149.385 238.298 150.991 238.195 152.622L236.768 174.782C236.69 175.97 236.27 177.109 235.561 178.064C234.851 179.019 233.881 179.748 232.767 180.165C232.082 180.421 231.357 180.552 230.626 180.552V180.552Z" fill="#2BC4A9"/>
<path d="M650.952 526H1.04812C0.770667 525.999 0.504855 525.888 0.308948 525.692C0.11304 525.495 0.00302124 525.229 0.00302124 524.951C0.00302124 524.674 0.11304 524.407 0.308948 524.211C0.504855 524.014 0.770667 523.903 1.04812 523.902H650.952C651.23 523.902 651.496 524.013 651.693 524.21C651.89 524.406 652 524.673 652 524.951C652 525.229 651.89 525.496 651.693 525.693C651.496 525.889 651.23 526 650.952 526V526Z" fill="#E5E5E5"/>
</svg>
